SplineFontDB: 3.2
FontName: 7x12
FullName: 7x12
FamilyName: 7x12
Weight: Medium
Version: 1.0
ItalicAngle: 0
UnderlinePosition: -150
UnderlineWidth: 100
Ascent: 900
Descent: 300
InvalidEm: 0
sfntRevision: 0x00010000
LayerCount: 2
Layer: 0 1 "+tLe6dAAA" 1
Layer: 1 1 "+xV66dAAA" 0
XUID: [1021 27 -6214962 8931056]
StyleMap: 0x0040
FSType: 0
OS2Version: 5
OS2_WeightWidthSlopeOnly: 0
OS2_UseTypoMetrics: 1
CreationTime: 1726740534
ModificationTime: 1726740534
PfmFamily: 17
TTFWeight: 500
TTFWidth: 5
LineGap: 0
VLineGap: 0
Panose: 2 0 0 9 0 0 0 0 0 0
OS2TypoAscent: 900
OS2TypoAOffset: 0
OS2TypoDescent: -300
OS2TypoDOffset: 0
OS2TypoLinegap: 0
OS2WinAscent: 900
OS2WinAOffset: 0
OS2WinDescent: 300
OS2WinDOffset: 0
HheadAscent: 900
HheadAOffset: 0
HheadDescent: -300
HheadDOffset: 0
OS2SubXSize: 1200
OS2SubYSize: 1200
OS2SubXOff: 0
OS2SubYOff: 600
OS2SupXSize: 1200
OS2SupYSize: 1200
OS2SupXOff: 0
OS2SupYOff: 600
OS2StrikeYSize: 100
OS2StrikeYPos: 450
OS2CapHeight: 700
OS2XHeight: 500
OS2Vendor: 'KBnP'
OS2CodePages: 00000000.00000000
OS2UnicodeRanges: 00000001.10000000.00000000.00000000
DEI: 91125
ShortTable: maxp 16
  1
  0
  205
  104
  14
  0
  0
  2
  0
  0
  0
  0
  0
  0
  0
  0
EndShort
LangName: 1033 "" "" "Regular" "BitsNPicas: Untitled: 2024" "" "Version 1.0" "" "" "Made with Bits'n'Picas by Kreative Software" "" "" "http://www.kreativekorp.com/software/bitsnpicas/" "" "" "" "" "7x12"
Encoding: UnicodeBmp
UnicodeInterp: none
NameList: AGL For New Fonts
DisplaySize: -48
AntiAlias: 1
FitToEm: 0
BeginChars: 65539 205

StartChar: exclam
Encoding: 33 33 4
Width: 700
GlyphClass: 1
Flags: W
LayerCount: 2
Fore
SplineSet
400 200 m 1,0,-1
 300 200 l 1,1,-1
 300 700 l 1,2,-1
 400 700 l 1,3,-1
 400 200 l 1,0,-1
400 100 m 1,4,-1
 400 0 l 1,5,-1
 300 0 l 1,6,-1
 300 100 l 1,7,-1
 400 100 l 1,4,-1
EndSplineSet
EndChar

StartChar: quotedbl
Encoding: 34 34 5
Width: 700
GlyphClass: 1
Flags: W
LayerCount: 2
Fore
SplineSet
400 400 m 1,0,-1
 400 700 l 1,1,-1
 500 700 l 1,2,-1
 500 400 l 1,3,-1
 400 400 l 1,0,-1
200 400 m 1,4,-1
 200 700 l 1,5,-1
 300 700 l 1,6,-1
 300 400 l 1,7,-1
 200 400 l 1,4,-1
EndSplineSet
EndChar

StartChar: numbersign
Encoding: 35 35 6
Width: 700
GlyphClass: 1
Flags: W
LayerCount: 2
Fore
SplineSet
200 200 m 1,0,-1
 100 200 l 1,1,-1
 100 300 l 1,2,-1
 200 300 l 1,3,-1
 200 400 l 1,4,-1
 100 400 l 1,5,-1
 100 500 l 1,6,-1
 200 500 l 1,7,-1
 200 700 l 1,8,-1
 300 700 l 1,9,-1
 300 500 l 1,10,-1
 400 500 l 1,11,-1
 400 700 l 1,12,-1
 500 700 l 1,13,-1
 500 500 l 1,14,-1
 600 500 l 1,15,-1
 600 400 l 1,16,-1
 500 400 l 1,17,-1
 500 300 l 1,18,-1
 600 300 l 1,19,-1
 600 200 l 1,20,-1
 500 200 l 1,21,-1
 500 0 l 1,22,-1
 400 0 l 1,23,-1
 400 200 l 1,24,-1
 300 200 l 1,25,-1
 300 0 l 1,26,-1
 200 0 l 1,27,-1
 200 200 l 1,0,-1
400 400 m 1,28,-1
 300 400 l 1,29,-1
 300 300 l 1,30,-1
 400 300 l 1,31,-1
 400 400 l 1,28,-1
EndSplineSet
EndChar

StartChar: dollar
Encoding: 36 36 7
Width: 700
GlyphClass: 1
Flags: W
LayerCount: 2
Fore
SplineSet
200 500 m 1,0,-1
 200 400 l 1,1,-1
 100 400 l 1,2,-1
 100 500 l 1,3,-1
 200 500 l 1,0,-1
200 400 m 1,4,-1
 300 400 l 1,5,-1
 300 500 l 1,6,-1
 200 500 l 1,7,-1
 200 600 l 1,8,-1
 300 600 l 1,9,-1
 300 700 l 1,10,-1
 400 700 l 1,11,-1
 400 600 l 1,12,-1
 600 600 l 1,13,-1
 600 500 l 1,14,-1
 400 500 l 1,15,-1
 400 400 l 1,16,-1
 500 400 l 1,17,-1
 500 300 l 1,18,-1
 400 300 l 1,19,-1
 400 200 l 1,20,-1
 500 200 l 1,21,-1
 500 100 l 1,22,-1
 400 100 l 1,23,-1
 400 0 l 1,24,-1
 300 0 l 1,25,-1
 300 100 l 1,26,-1
 100 100 l 1,27,-1
 100 200 l 1,28,-1
 300 200 l 1,29,-1
 300 300 l 1,30,-1
 200 300 l 1,31,-1
 200 400 l 1,4,-1
600 200 m 1,32,-1
 500 200 l 1,33,-1
 500 300 l 1,34,-1
 600 300 l 1,35,-1
 600 200 l 1,32,-1
EndSplineSet
EndChar

StartChar: percent
Encoding: 37 37 8
Width: 700
GlyphClass: 1
Flags: W
LayerCount: 2
Fore
SplineSet
100 100 m 1,0,-1
 100 200 l 1,1,-1
 200 200 l 1,2,-1
 200 100 l 1,3,-1
 100 100 l 1,0,-1
100 500 m 1,4,-1
 100 700 l 1,5,-1
 300 700 l 1,6,-1
 300 500 l 1,7,-1
 100 500 l 1,4,-1
200 200 m 1,8,-1
 200 300 l 1,9,-1
 300 300 l 1,10,-1
 300 200 l 1,11,-1
 200 200 l 1,8,-1
300 300 m 1,12,-1
 300 400 l 1,13,-1
 400 400 l 1,14,-1
 400 300 l 1,15,-1
 300 300 l 1,12,-1
400 200 m 1,16,-1
 600 200 l 1,17,-1
 600 0 l 1,18,-1
 400 0 l 1,19,-1
 400 200 l 1,16,-1
400 400 m 1,20,-1
 400 500 l 1,21,-1
 500 500 l 1,22,-1
 500 400 l 1,23,-1
 400 400 l 1,20,-1
500 500 m 1,24,-1
 500 600 l 1,25,-1
 600 600 l 1,26,-1
 600 500 l 1,27,-1
 500 500 l 1,24,-1
EndSplineSet
EndChar

StartChar: ampersand
Encoding: 38 38 9
Width: 700
GlyphClass: 1
Flags: W
LayerCount: 2
Fore
SplineSet
200 100 m 1,0,-1
 400 100 l 1,1,-1
 400 0 l 1,2,-1
 200 0 l 1,3,-1
 200 100 l 1,0,-1
200 400 m 1,4,-1
 100 400 l 1,5,-1
 100 600 l 1,6,-1
 200 600 l 1,7,-1
 200 400 l 1,4,-1
200 300 m 1,8,-1
 200 100 l 1,9,-1
 100 100 l 1,10,-1
 100 300 l 1,11,-1
 200 300 l 1,8,-1
200 600 m 1,12,-1
 200 700 l 1,13,-1
 300 700 l 1,14,-1
 300 600 l 1,15,-1
 200 600 l 1,12,-1
400 200 m 1,16,-1
 500 200 l 1,17,-1
 500 100 l 1,18,-1
 400 100 l 1,19,-1
 400 200 l 1,16,-1
400 400 m 1,20,-1
 300 400 l 1,21,-1
 300 600 l 1,22,-1
 400 600 l 1,23,-1
 400 400 l 1,20,-1
400 300 m 1,24,-1
 400 200 l 1,25,-1
 300 200 l 1,26,-1
 300 300 l 1,27,-1
 400 300 l 1,24,-1
600 200 m 1,28,-1
 500 200 l 1,29,-1
 500 300 l 1,30,-1
 600 300 l 1,31,-1
 600 200 l 1,28,-1
600 100 m 1,32,-1
 600 0 l 1,33,-1
 500 0 l 1,34,-1
 500 100 l 1,35,-1
 600 100 l 1,32,-1
300 400 m 1,36,-1
 300 300 l 1,37,-1
 200 300 l 1,38,-1
 200 400 l 1,39,-1
 300 400 l 1,36,-1
EndSplineSet
EndChar

StartChar: quotesingle
Encoding: 39 39 10
Width: 700
GlyphClass: 1
Flags: W
LayerCount: 2
Fore
SplineSet
400 400 m 1,0,-1
 300 400 l 1,1,-1
 300 700 l 1,2,-1
 400 700 l 1,3,-1
 400 400 l 1,0,-1
EndSplineSet
EndChar

StartChar: parenleft
Encoding: 40 40 11
Width: 700
GlyphClass: 1
Flags: W
LayerCount: 2
Fore
SplineSet
200 200 m 1,0,-1
 200 500 l 1,1,-1
 300 500 l 1,2,-1
 300 200 l 1,3,-1
 200 200 l 1,0,-1
300 200 m 1,4,-1
 400 200 l 1,5,-1
 400 100 l 1,6,-1
 300 100 l 1,7,-1
 300 200 l 1,4,-1
300 500 m 1,8,-1
 300 600 l 1,9,-1
 400 600 l 1,10,-1
 400 500 l 1,11,-1
 300 500 l 1,8,-1
400 100 m 1,12,-1
 500 100 l 1,13,-1
 500 0 l 1,14,-1
 400 0 l 1,15,-1
 400 100 l 1,12,-1
400 600 m 1,16,-1
 400 700 l 1,17,-1
 500 700 l 1,18,-1
 500 600 l 1,19,-1
 400 600 l 1,16,-1
EndSplineSet
EndChar

StartChar: parenright
Encoding: 41 41 12
Width: 700
GlyphClass: 1
Flags: W
LayerCount: 2
Fore
SplineSet
200 0 m 1,0,-1
 200 100 l 1,1,-1
 300 100 l 1,2,-1
 300 0 l 1,3,-1
 200 0 l 1,0,-1
200 600 m 1,4,-1
 200 700 l 1,5,-1
 300 700 l 1,6,-1
 300 600 l 1,7,-1
 200 600 l 1,4,-1
300 100 m 1,8,-1
 300 200 l 1,9,-1
 400 200 l 1,10,-1
 400 100 l 1,11,-1
 300 100 l 1,8,-1
300 500 m 1,12,-1
 300 600 l 1,13,-1
 400 600 l 1,14,-1
 400 500 l 1,15,-1
 300 500 l 1,12,-1
400 200 m 1,16,-1
 400 500 l 1,17,-1
 500 500 l 1,18,-1
 500 200 l 1,19,-1
 400 200 l 1,16,-1
EndSplineSet
EndChar

StartChar: asterisk
Encoding: 42 42 13
Width: 700
GlyphClass: 1
Flags: W
LayerCount: 2
Fore
SplineSet
200 200 m 1,0,-1
 200 100 l 1,1,-1
 100 100 l 1,2,-1
 100 200 l 1,3,-1
 200 200 l 1,0,-1
200 500 m 1,4,-1
 100 500 l 1,5,-1
 100 600 l 1,6,-1
 200 600 l 1,7,-1
 200 500 l 1,4,-1
200 400 m 1,8,-1
 200 500 l 1,9,-1
 300 500 l 1,10,-1
 300 700 l 1,11,-1
 400 700 l 1,12,-1
 400 500 l 1,13,-1
 500 500 l 1,14,-1
 500 400 l 1,15,-1
 400 400 l 1,16,-1
 400 300 l 1,17,-1
 500 300 l 1,18,-1
 500 200 l 1,19,-1
 400 200 l 1,20,-1
 400 0 l 1,21,-1
 300 0 l 1,22,-1
 300 200 l 1,23,-1
 200 200 l 1,24,-1
 200 300 l 1,25,-1
 300 300 l 1,26,-1
 300 400 l 1,27,-1
 200 400 l 1,8,-1
600 200 m 1,28,-1
 600 100 l 1,29,-1
 500 100 l 1,30,-1
 500 200 l 1,31,-1
 600 200 l 1,28,-1
600 500 m 1,32,-1
 500 500 l 1,33,-1
 500 600 l 1,34,-1
 600 600 l 1,35,-1
 600 500 l 1,32,-1
EndSplineSet
EndChar

StartChar: plus
Encoding: 43 43 14
Width: 700
GlyphClass: 1
Flags: W
LayerCount: 2
Fore
SplineSet
400 100 m 1,0,-1
 300 100 l 1,1,-1
 300 300 l 1,2,-1
 100 300 l 1,3,-1
 100 400 l 1,4,-1
 300 400 l 1,5,-1
 300 600 l 1,6,-1
 400 600 l 1,7,-1
 400 400 l 1,8,-1
 600 400 l 1,9,-1
 600 300 l 1,10,-1
 400 300 l 1,11,-1
 400 100 l 1,0,-1
EndSplineSet
EndChar

StartChar: comma
Encoding: 44 44 15
Width: 700
GlyphClass: 1
Flags: W
LayerCount: 2
Fore
SplineSet
400 0 m 1,0,-1
 300 0 l 1,1,-1
 300 200 l 1,2,-1
 400 200 l 1,3,-1
 400 0 l 1,0,-1
200 -100 m 1,4,-1
 200 0 l 1,5,-1
 300 0 l 1,6,-1
 300 -100 l 1,7,-1
 200 -100 l 1,4,-1
EndSplineSet
EndChar

StartChar: hyphen
Encoding: 45 45 16
Width: 700
GlyphClass: 1
Flags: W
LayerCount: 2
Fore
SplineSet
100 300 m 1,0,-1
 100 400 l 1,1,-1
 600 400 l 1,2,-1
 600 300 l 1,3,-1
 100 300 l 1,0,-1
EndSplineSet
EndChar

StartChar: period
Encoding: 46 46 17
Width: 700
GlyphClass: 1
Flags: W
LayerCount: 2
Fore
SplineSet
400 100 m 1,0,-1
 400 0 l 1,1,-1
 300 0 l 1,2,-1
 300 100 l 1,3,-1
 400 100 l 1,0,-1
EndSplineSet
EndChar

StartChar: slash
Encoding: 47 47 18
Width: 700
GlyphClass: 1
Flags: W
LayerCount: 2
Fore
SplineSet
100 100 m 1,0,-1
 100 200 l 1,1,-1
 200 200 l 1,2,-1
 200 100 l 1,3,-1
 100 100 l 1,0,-1
200 200 m 1,4,-1
 200 300 l 1,5,-1
 300 300 l 1,6,-1
 300 200 l 1,7,-1
 200 200 l 1,4,-1
300 300 m 1,8,-1
 300 400 l 1,9,-1
 400 400 l 1,10,-1
 400 300 l 1,11,-1
 300 300 l 1,8,-1
400 400 m 1,12,-1
 400 500 l 1,13,-1
 500 500 l 1,14,-1
 500 400 l 1,15,-1
 400 400 l 1,12,-1
500 500 m 1,16,-1
 500 600 l 1,17,-1
 600 600 l 1,18,-1
 600 500 l 1,19,-1
 500 500 l 1,16,-1
EndSplineSet
EndChar

StartChar: zero
Encoding: 48 48 19
Width: 700
GlyphClass: 1
Flags: W
LayerCount: 2
Fore
SplineSet
100 100 m 1,0,-1
 100 600 l 1,1,-1
 200 600 l 1,2,-1
 200 500 l 1,3,-1
 300 500 l 1,4,-1
 300 400 l 1,5,-1
 200 400 l 1,6,-1
 200 100 l 1,7,-1
 100 100 l 1,0,-1
200 100 m 1,8,-1
 500 100 l 1,9,-1
 500 0 l 1,10,-1
 200 0 l 1,11,-1
 200 100 l 1,8,-1
200 600 m 1,12,-1
 200 700 l 1,13,-1
 500 700 l 1,14,-1
 500 600 l 1,15,-1
 200 600 l 1,12,-1
300 400 m 1,16,-1
 400 400 l 1,17,-1
 400 300 l 1,18,-1
 300 300 l 1,19,-1
 300 400 l 1,16,-1
400 200 m 1,20,-1
 400 300 l 1,21,-1
 500 300 l 1,22,-1
 500 600 l 1,23,-1
 600 600 l 1,24,-1
 600 100 l 1,25,-1
 500 100 l 1,26,-1
 500 200 l 1,27,-1
 400 200 l 1,20,-1
EndSplineSet
EndChar

StartChar: one
Encoding: 49 49 20
Width: 700
GlyphClass: 1
Flags: W
LayerCount: 2
Fore
SplineSet
400 100 m 1,0,-1
 500 100 l 1,1,-1
 500 0 l 1,2,-1
 200 0 l 1,3,-1
 200 100 l 1,4,-1
 300 100 l 1,5,-1
 300 500 l 1,6,-1
 200 500 l 1,7,-1
 200 600 l 1,8,-1
 300 600 l 1,9,-1
 300 700 l 1,10,-1
 400 700 l 1,11,-1
 400 100 l 1,0,-1
EndSplineSet
EndChar

StartChar: two
Encoding: 50 50 21
Width: 700
GlyphClass: 1
Flags: W
LayerCount: 2
Fore
SplineSet
100 200 m 1,0,-1
 200 200 l 1,1,-1
 200 100 l 1,2,-1
 600 100 l 1,3,-1
 600 0 l 1,4,-1
 100 0 l 1,5,-1
 100 200 l 1,0,-1
100 500 m 1,6,-1
 100 600 l 1,7,-1
 200 600 l 1,8,-1
 200 500 l 1,9,-1
 100 500 l 1,6,-1
200 200 m 1,10,-1
 200 300 l 1,11,-1
 300 300 l 1,12,-1
 300 200 l 1,13,-1
 200 200 l 1,10,-1
200 600 m 1,14,-1
 200 700 l 1,15,-1
 500 700 l 1,16,-1
 500 600 l 1,17,-1
 200 600 l 1,14,-1
300 300 m 1,18,-1
 300 400 l 1,19,-1
 500 400 l 1,20,-1
 500 300 l 1,21,-1
 300 300 l 1,18,-1
500 400 m 1,22,-1
 500 600 l 1,23,-1
 600 600 l 1,24,-1
 600 400 l 1,25,-1
 500 400 l 1,22,-1
EndSplineSet
EndChar

StartChar: three
Encoding: 51 51 22
Width: 700
GlyphClass: 1
Flags: W
LayerCount: 2
Fore
SplineSet
100 100 m 1,0,-1
 100 200 l 1,1,-1
 200 200 l 1,2,-1
 200 100 l 1,3,-1
 100 100 l 1,0,-1
100 500 m 1,4,-1
 100 600 l 1,5,-1
 200 600 l 1,6,-1
 200 500 l 1,7,-1
 100 500 l 1,4,-1
200 100 m 1,8,-1
 500 100 l 1,9,-1
 500 0 l 1,10,-1
 200 0 l 1,11,-1
 200 100 l 1,8,-1
200 600 m 1,12,-1
 200 700 l 1,13,-1
 500 700 l 1,14,-1
 500 600 l 1,15,-1
 200 600 l 1,12,-1
300 300 m 1,16,-1
 300 400 l 1,17,-1
 500 400 l 1,18,-1
 500 300 l 1,19,-1
 300 300 l 1,16,-1
500 100 m 1,20,-1
 500 300 l 1,21,-1
 600 300 l 1,22,-1
 600 100 l 1,23,-1
 500 100 l 1,20,-1
500 400 m 1,24,-1
 500 600 l 1,25,-1
 600 600 l 1,26,-1
 600 400 l 1,27,-1
 500 400 l 1,24,-1
EndSplineSet
EndChar

StartChar: four
Encoding: 52 52 23
Width: 700
GlyphClass: 1
Flags: W
LayerCount: 2
Fore
SplineSet
100 200 m 1,0,-1
 100 400 l 1,1,-1
 200 400 l 1,2,-1
 200 300 l 1,3,-1
 400 300 l 1,4,-1
 400 500 l 1,5,-1
 300 500 l 1,6,-1
 300 600 l 1,7,-1
 400 600 l 1,8,-1
 400 700 l 1,9,-1
 500 700 l 1,10,-1
 500 300 l 1,11,-1
 600 300 l 1,12,-1
 600 200 l 1,13,-1
 500 200 l 1,14,-1
 500 0 l 1,15,-1
 400 0 l 1,16,-1
 400 200 l 1,17,-1
 100 200 l 1,0,-1
200 400 m 1,18,-1
 200 500 l 1,19,-1
 300 500 l 1,20,-1
 300 400 l 1,21,-1
 200 400 l 1,18,-1
EndSplineSet
EndChar

StartChar: five
Encoding: 53 53 24
Width: 700
GlyphClass: 1
Flags: W
LayerCount: 2
Fore
SplineSet
100 100 m 1,0,-1
 100 200 l 1,1,-1
 200 200 l 1,2,-1
 200 100 l 1,3,-1
 100 100 l 1,0,-1
100 400 m 1,4,-1
 100 700 l 1,5,-1
 600 700 l 1,6,-1
 600 600 l 1,7,-1
 200 600 l 1,8,-1
 200 500 l 1,9,-1
 500 500 l 1,10,-1
 500 400 l 1,11,-1
 100 400 l 1,4,-1
200 100 m 1,12,-1
 500 100 l 1,13,-1
 500 0 l 1,14,-1
 200 0 l 1,15,-1
 200 100 l 1,12,-1
500 100 m 1,16,-1
 500 400 l 1,17,-1
 600 400 l 1,18,-1
 600 100 l 1,19,-1
 500 100 l 1,16,-1
EndSplineSet
EndChar

StartChar: six
Encoding: 54 54 25
Width: 700
GlyphClass: 1
Flags: W
LayerCount: 2
Fore
SplineSet
100 100 m 1,0,-1
 100 500 l 1,1,-1
 200 500 l 1,2,-1
 200 400 l 1,3,-1
 500 400 l 1,4,-1
 500 300 l 1,5,-1
 200 300 l 1,6,-1
 200 100 l 1,7,-1
 100 100 l 1,0,-1
200 100 m 1,8,-1
 500 100 l 1,9,-1
 500 0 l 1,10,-1
 200 0 l 1,11,-1
 200 100 l 1,8,-1
200 500 m 1,12,-1
 200 600 l 1,13,-1
 300 600 l 1,14,-1
 300 500 l 1,15,-1
 200 500 l 1,12,-1
300 600 m 1,16,-1
 300 700 l 1,17,-1
 600 700 l 1,18,-1
 600 600 l 1,19,-1
 300 600 l 1,16,-1
500 100 m 1,20,-1
 500 300 l 1,21,-1
 600 300 l 1,22,-1
 600 100 l 1,23,-1
 500 100 l 1,20,-1
EndSplineSet
EndChar

StartChar: seven
Encoding: 55 55 26
Width: 700
GlyphClass: 1
Flags: W
LayerCount: 2
Fore
SplineSet
100 600 m 1,0,-1
 100 700 l 1,1,-1
 600 700 l 1,2,-1
 600 500 l 1,3,-1
 500 500 l 1,4,-1
 500 600 l 1,5,-1
 100 600 l 1,0,-1
200 0 m 1,6,-1
 200 300 l 1,7,-1
 300 300 l 1,8,-1
 300 0 l 1,9,-1
 200 0 l 1,6,-1
300 300 m 1,10,-1
 300 400 l 1,11,-1
 400 400 l 1,12,-1
 400 300 l 1,13,-1
 300 300 l 1,10,-1
400 400 m 1,14,-1
 400 500 l 1,15,-1
 500 500 l 1,16,-1
 500 400 l 1,17,-1
 400 400 l 1,14,-1
EndSplineSet
EndChar

StartChar: eight
Encoding: 56 56 27
Width: 700
GlyphClass: 1
Flags: W
LayerCount: 2
Fore
SplineSet
100 100 m 1,0,-1
 100 300 l 1,1,-1
 200 300 l 1,2,-1
 200 100 l 1,3,-1
 100 100 l 1,0,-1
100 400 m 1,4,-1
 100 600 l 1,5,-1
 200 600 l 1,6,-1
 200 400 l 1,7,-1
 100 400 l 1,4,-1
200 100 m 1,8,-1
 500 100 l 1,9,-1
 500 0 l 1,10,-1
 200 0 l 1,11,-1
 200 100 l 1,8,-1
200 400 m 1,12,-1
 500 400 l 1,13,-1
 500 300 l 1,14,-1
 200 300 l 1,15,-1
 200 400 l 1,12,-1
200 600 m 1,16,-1
 200 700 l 1,17,-1
 500 700 l 1,18,-1
 500 600 l 1,19,-1
 200 600 l 1,16,-1
500 100 m 1,20,-1
 500 300 l 1,21,-1
 600 300 l 1,22,-1
 600 100 l 1,23,-1
 500 100 l 1,20,-1
500 400 m 1,24,-1
 500 600 l 1,25,-1
 600 600 l 1,26,-1
 600 400 l 1,27,-1
 500 400 l 1,24,-1
EndSplineSet
EndChar

StartChar: nine
Encoding: 57 57 28
Width: 700
GlyphClass: 1
Flags: W
LayerCount: 2
Fore
SplineSet
100 0 m 1,0,-1
 100 100 l 1,1,-1
 400 100 l 1,2,-1
 400 0 l 1,3,-1
 100 0 l 1,0,-1
100 400 m 1,4,-1
 100 600 l 1,5,-1
 200 600 l 1,6,-1
 200 400 l 1,7,-1
 100 400 l 1,4,-1
200 400 m 1,8,-1
 500 400 l 1,9,-1
 500 600 l 1,10,-1
 600 600 l 1,11,-1
 600 200 l 1,12,-1
 500 200 l 1,13,-1
 500 300 l 1,14,-1
 200 300 l 1,15,-1
 200 400 l 1,8,-1
200 600 m 1,16,-1
 200 700 l 1,17,-1
 500 700 l 1,18,-1
 500 600 l 1,19,-1
 200 600 l 1,16,-1
400 100 m 1,20,-1
 400 200 l 1,21,-1
 500 200 l 1,22,-1
 500 100 l 1,23,-1
 400 100 l 1,20,-1
EndSplineSet
EndChar

StartChar: colon
Encoding: 58 58 29
Width: 700
GlyphClass: 1
Flags: W
LayerCount: 2
Fore
SplineSet
400 200 m 1,0,-1
 300 200 l 1,1,-1
 300 300 l 1,2,-1
 400 300 l 1,3,-1
 400 200 l 1,0,-1
400 500 m 1,4,-1
 400 400 l 1,5,-1
 300 400 l 1,6,-1
 300 500 l 1,7,-1
 400 500 l 1,4,-1
EndSplineSet
EndChar

StartChar: semicolon
Encoding: 59 59 30
Width: 700
GlyphClass: 1
Flags: W
LayerCount: 2
Fore
SplineSet
400 100 m 1,0,-1
 300 100 l 1,1,-1
 300 300 l 1,2,-1
 400 300 l 1,3,-1
 400 100 l 1,0,-1
400 500 m 1,4,-1
 400 400 l 1,5,-1
 300 400 l 1,6,-1
 300 500 l 1,7,-1
 400 500 l 1,4,-1
200 0 m 1,8,-1
 200 100 l 1,9,-1
 300 100 l 1,10,-1
 300 0 l 1,11,-1
 200 0 l 1,8,-1
EndSplineSet
EndChar

StartChar: less
Encoding: 60 60 31
Width: 700
GlyphClass: 1
Flags: W
LayerCount: 2
Fore
SplineSet
100 300 m 1,0,-1
 100 400 l 1,1,-1
 200 400 l 1,2,-1
 200 300 l 1,3,-1
 100 300 l 1,0,-1
200 200 m 1,4,-1
 200 300 l 1,5,-1
 300 300 l 1,6,-1
 300 200 l 1,7,-1
 200 200 l 1,4,-1
200 400 m 1,8,-1
 200 500 l 1,9,-1
 300 500 l 1,10,-1
 300 400 l 1,11,-1
 200 400 l 1,8,-1
300 200 m 1,12,-1
 400 200 l 1,13,-1
 400 100 l 1,14,-1
 300 100 l 1,15,-1
 300 200 l 1,12,-1
300 500 m 1,16,-1
 300 600 l 1,17,-1
 400 600 l 1,18,-1
 400 500 l 1,19,-1
 300 500 l 1,16,-1
400 100 m 1,20,-1
 500 100 l 1,21,-1
 500 0 l 1,22,-1
 400 0 l 1,23,-1
 400 100 l 1,20,-1
400 600 m 1,24,-1
 400 700 l 1,25,-1
 500 700 l 1,26,-1
 500 600 l 1,27,-1
 400 600 l 1,24,-1
EndSplineSet
EndChar

StartChar: equal
Encoding: 61 61 32
Width: 700
GlyphClass: 1
Flags: W
LayerCount: 2
Fore
SplineSet
100 200 m 1,0,-1
 100 300 l 1,1,-1
 600 300 l 1,2,-1
 600 200 l 1,3,-1
 100 200 l 1,0,-1
100 400 m 1,4,-1
 100 500 l 1,5,-1
 600 500 l 1,6,-1
 600 400 l 1,7,-1
 100 400 l 1,4,-1
EndSplineSet
EndChar

StartChar: greater
Encoding: 62 62 33
Width: 700
GlyphClass: 1
Flags: W
LayerCount: 2
Fore
SplineSet
200 0 m 1,0,-1
 200 100 l 1,1,-1
 300 100 l 1,2,-1
 300 0 l 1,3,-1
 200 0 l 1,0,-1
200 600 m 1,4,-1
 200 700 l 1,5,-1
 300 700 l 1,6,-1
 300 600 l 1,7,-1
 200 600 l 1,4,-1
300 100 m 1,8,-1
 300 200 l 1,9,-1
 400 200 l 1,10,-1
 400 100 l 1,11,-1
 300 100 l 1,8,-1
300 500 m 1,12,-1
 300 600 l 1,13,-1
 400 600 l 1,14,-1
 400 500 l 1,15,-1
 300 500 l 1,12,-1
400 200 m 1,16,-1
 400 300 l 1,17,-1
 500 300 l 1,18,-1
 500 200 l 1,19,-1
 400 200 l 1,16,-1
400 500 m 1,20,-1
 500 500 l 1,21,-1
 500 400 l 1,22,-1
 400 400 l 1,23,-1
 400 500 l 1,20,-1
500 400 m 1,24,-1
 600 400 l 1,25,-1
 600 300 l 1,26,-1
 500 300 l 1,27,-1
 500 400 l 1,24,-1
EndSplineSet
EndChar

StartChar: question
Encoding: 63 63 34
Width: 700
GlyphClass: 1
Flags: W
LayerCount: 2
Fore
SplineSet
100 500 m 1,0,-1
 100 600 l 1,1,-1
 200 600 l 1,2,-1
 200 500 l 1,3,-1
 100 500 l 1,0,-1
200 600 m 1,4,-1
 200 700 l 1,5,-1
 500 700 l 1,6,-1
 500 600 l 1,7,-1
 200 600 l 1,4,-1
300 0 m 1,8,-1
 300 100 l 1,9,-1
 400 100 l 1,10,-1
 400 0 l 1,11,-1
 300 0 l 1,8,-1
300 200 m 1,12,-1
 300 400 l 1,13,-1
 400 400 l 1,14,-1
 400 200 l 1,15,-1
 300 200 l 1,12,-1
400 400 m 1,16,-1
 400 500 l 1,17,-1
 500 500 l 1,18,-1
 500 400 l 1,19,-1
 400 400 l 1,16,-1
500 500 m 1,20,-1
 500 600 l 1,21,-1
 600 600 l 1,22,-1
 600 500 l 1,23,-1
 500 500 l 1,20,-1
EndSplineSet
EndChar

StartChar: at
Encoding: 64 64 35
Width: 700
GlyphClass: 1
Flags: W
LayerCount: 2
Fore
SplineSet
100 100 m 1,0,-1
 100 600 l 1,1,-1
 200 600 l 1,2,-1
 200 100 l 1,3,-1
 100 100 l 1,0,-1
200 100 m 1,4,-1
 600 100 l 1,5,-1
 600 0 l 1,6,-1
 200 0 l 1,7,-1
 200 100 l 1,4,-1
200 600 m 1,8,-1
 200 700 l 1,9,-1
 500 700 l 1,10,-1
 500 600 l 1,11,-1
 200 600 l 1,8,-1
300 200 m 1,12,-1
 300 500 l 1,13,-1
 500 500 l 1,14,-1
 500 600 l 1,15,-1
 600 600 l 1,16,-1
 600 200 l 1,17,-1
 300 200 l 1,12,-1
400 400 m 1,18,-1
 400 300 l 1,19,-1
 500 300 l 1,20,-1
 500 400 l 1,21,-1
 400 400 l 1,18,-1
EndSplineSet
EndChar

StartChar: A
Encoding: 65 65 36
Width: 700
GlyphClass: 1
Flags: W
LayerCount: 2
Fore
SplineSet
100 0 m 1,0,-1
 100 500 l 1,1,-1
 200 500 l 1,2,-1
 200 300 l 1,3,-1
 500 300 l 1,4,-1
 500 500 l 1,5,-1
 600 500 l 1,6,-1
 600 0 l 1,7,-1
 500 0 l 1,8,-1
 500 200 l 1,9,-1
 200 200 l 1,10,-1
 200 0 l 1,11,-1
 100 0 l 1,0,-1
200 500 m 1,12,-1
 200 600 l 1,13,-1
 300 600 l 1,14,-1
 300 500 l 1,15,-1
 200 500 l 1,12,-1
300 600 m 1,16,-1
 300 700 l 1,17,-1
 400 700 l 1,18,-1
 400 600 l 1,19,-1
 300 600 l 1,16,-1
400 500 m 1,20,-1
 400 600 l 1,21,-1
 500 600 l 1,22,-1
 500 500 l 1,23,-1
 400 500 l 1,20,-1
EndSplineSet
EndChar

StartChar: B
Encoding: 66 66 37
Width: 700
GlyphClass: 1
Flags: W
LayerCount: 2
Fore
SplineSet
100 0 m 1,0,-1
 100 700 l 1,1,-1
 500 700 l 1,2,-1
 500 600 l 1,3,-1
 200 600 l 1,4,-1
 200 400 l 1,5,-1
 500 400 l 1,6,-1
 500 300 l 1,7,-1
 200 300 l 1,8,-1
 200 100 l 1,9,-1
 500 100 l 1,10,-1
 500 0 l 1,11,-1
 100 0 l 1,0,-1
500 100 m 1,12,-1
 500 300 l 1,13,-1
 600 300 l 1,14,-1
 600 100 l 1,15,-1
 500 100 l 1,12,-1
500 400 m 1,16,-1
 500 600 l 1,17,-1
 600 600 l 1,18,-1
 600 400 l 1,19,-1
 500 400 l 1,16,-1
EndSplineSet
EndChar

StartChar: C
Encoding: 67 67 38
Width: 700
GlyphClass: 1
Flags: W
LayerCount: 2
Fore
SplineSet
100 100 m 1,0,-1
 100 600 l 1,1,-1
 200 600 l 1,2,-1
 200 100 l 1,3,-1
 100 100 l 1,0,-1
200 100 m 1,4,-1
 500 100 l 1,5,-1
 500 0 l 1,6,-1
 200 0 l 1,7,-1
 200 100 l 1,4,-1
200 600 m 1,8,-1
 200 700 l 1,9,-1
 500 700 l 1,10,-1
 500 600 l 1,11,-1
 200 600 l 1,8,-1
500 100 m 1,12,-1
 500 200 l 1,13,-1
 600 200 l 1,14,-1
 600 100 l 1,15,-1
 500 100 l 1,12,-1
500 500 m 1,16,-1
 500 600 l 1,17,-1
 600 600 l 1,18,-1
 600 500 l 1,19,-1
 500 500 l 1,16,-1
EndSplineSet
EndChar

StartChar: D
Encoding: 68 68 39
Width: 700
GlyphClass: 1
Flags: W
LayerCount: 2
Fore
SplineSet
100 0 m 1,0,-1
 100 700 l 1,1,-1
 400 700 l 1,2,-1
 400 600 l 1,3,-1
 200 600 l 1,4,-1
 200 100 l 1,5,-1
 400 100 l 1,6,-1
 400 0 l 1,7,-1
 100 0 l 1,0,-1
400 100 m 1,8,-1
 400 200 l 1,9,-1
 500 200 l 1,10,-1
 500 100 l 1,11,-1
 400 100 l 1,8,-1
400 500 m 1,12,-1
 400 600 l 1,13,-1
 500 600 l 1,14,-1
 500 500 l 1,15,-1
 400 500 l 1,12,-1
500 200 m 1,16,-1
 500 500 l 1,17,-1
 600 500 l 1,18,-1
 600 200 l 1,19,-1
 500 200 l 1,16,-1
EndSplineSet
EndChar

StartChar: E
Encoding: 69 69 40
Width: 700
GlyphClass: 1
Flags: W
LayerCount: 2
Fore
SplineSet
100 0 m 1,0,-1
 100 700 l 1,1,-1
 600 700 l 1,2,-1
 600 600 l 1,3,-1
 200 600 l 1,4,-1
 200 400 l 1,5,-1
 500 400 l 1,6,-1
 500 300 l 1,7,-1
 200 300 l 1,8,-1
 200 100 l 1,9,-1
 600 100 l 1,10,-1
 600 0 l 1,11,-1
 100 0 l 1,0,-1
EndSplineSet
EndChar

StartChar: F
Encoding: 70 70 41
Width: 700
GlyphClass: 1
Flags: W
LayerCount: 2
Fore
SplineSet
100 0 m 1,0,-1
 100 700 l 1,1,-1
 600 700 l 1,2,-1
 600 600 l 1,3,-1
 200 600 l 1,4,-1
 200 400 l 1,5,-1
 500 400 l 1,6,-1
 500 300 l 1,7,-1
 200 300 l 1,8,-1
 200 0 l 1,9,-1
 100 0 l 1,0,-1
EndSplineSet
EndChar

StartChar: G
Encoding: 71 71 42
Width: 700
GlyphClass: 1
Flags: W
LayerCount: 2
Fore
SplineSet
100 100 m 1,0,-1
 100 600 l 1,1,-1
 200 600 l 1,2,-1
 200 100 l 1,3,-1
 100 100 l 1,0,-1
200 100 m 1,4,-1
 500 100 l 1,5,-1
 500 300 l 1,6,-1
 300 300 l 1,7,-1
 300 400 l 1,8,-1
 600 400 l 1,9,-1
 600 0 l 1,10,-1
 200 0 l 1,11,-1
 200 100 l 1,4,-1
200 600 m 1,12,-1
 200 700 l 1,13,-1
 500 700 l 1,14,-1
 500 600 l 1,15,-1
 200 600 l 1,12,-1
500 500 m 1,16,-1
 500 600 l 1,17,-1
 600 600 l 1,18,-1
 600 500 l 1,19,-1
 500 500 l 1,16,-1
EndSplineSet
EndChar

StartChar: H
Encoding: 72 72 43
Width: 700
GlyphClass: 1
Flags: W
LayerCount: 2
Fore
SplineSet
100 0 m 1,0,-1
 100 700 l 1,1,-1
 200 700 l 1,2,-1
 200 400 l 1,3,-1
 500 400 l 1,4,-1
 500 700 l 1,5,-1
 600 700 l 1,6,-1
 600 0 l 1,7,-1
 500 0 l 1,8,-1
 500 300 l 1,9,-1
 200 300 l 1,10,-1
 200 0 l 1,11,-1
 100 0 l 1,0,-1
EndSplineSet
EndChar

StartChar: I
Encoding: 73 73 44
Width: 700
GlyphClass: 1
Flags: W
LayerCount: 2
Fore
SplineSet
400 100 m 1,0,-1
 500 100 l 1,1,-1
 500 0 l 1,2,-1
 200 0 l 1,3,-1
 200 100 l 1,4,-1
 300 100 l 1,5,-1
 300 600 l 1,6,-1
 200 600 l 1,7,-1
 200 700 l 1,8,-1
 500 700 l 1,9,-1
 500 600 l 1,10,-1
 400 600 l 1,11,-1
 400 100 l 1,0,-1
EndSplineSet
EndChar

StartChar: J
Encoding: 74 74 45
Width: 700
GlyphClass: 1
Flags: W
LayerCount: 2
Fore
SplineSet
100 100 m 1,0,-1
 100 200 l 1,1,-1
 200 200 l 1,2,-1
 200 100 l 1,3,-1
 100 100 l 1,0,-1
500 100 m 1,4,-1
 500 0 l 1,5,-1
 200 0 l 1,6,-1
 200 100 l 1,7,-1
 500 100 l 1,4,-1
500 700 m 1,8,-1
 600 700 l 1,9,-1
 600 100 l 1,10,-1
 500 100 l 1,11,-1
 500 700 l 1,8,-1
EndSplineSet
EndChar

StartChar: K
Encoding: 75 75 46
Width: 700
GlyphClass: 1
Flags: W
LayerCount: 2
Fore
SplineSet
200 0 m 1,0,-1
 100 0 l 1,1,-1
 100 700 l 1,2,-1
 200 700 l 1,3,-1
 200 400 l 1,4,-1
 300 400 l 1,5,-1
 300 300 l 1,6,-1
 200 300 l 1,7,-1
 200 0 l 1,0,-1
400 200 m 1,8,-1
 500 200 l 1,9,-1
 500 100 l 1,10,-1
 400 100 l 1,11,-1
 400 200 l 1,8,-1
400 500 m 1,12,-1
 400 400 l 1,13,-1
 300 400 l 1,14,-1
 300 500 l 1,15,-1
 400 500 l 1,12,-1
400 300 m 1,16,-1
 400 200 l 1,17,-1
 300 200 l 1,18,-1
 300 300 l 1,19,-1
 400 300 l 1,16,-1
400 600 m 1,20,-1
 500 600 l 1,21,-1
 500 500 l 1,22,-1
 400 500 l 1,23,-1
 400 600 l 1,20,-1
600 100 m 1,24,-1
 600 0 l 1,25,-1
 500 0 l 1,26,-1
 500 100 l 1,27,-1
 600 100 l 1,24,-1
600 700 m 1,28,-1
 600 600 l 1,29,-1
 500 600 l 1,30,-1
 500 700 l 1,31,-1
 600 700 l 1,28,-1
EndSplineSet
EndChar

StartChar: L
Encoding: 76 76 47
Width: 700
GlyphClass: 1
Flags: W
LayerCount: 2
Fore
SplineSet
100 0 m 1,0,-1
 100 700 l 1,1,-1
 200 700 l 1,2,-1
 200 100 l 1,3,-1
 600 100 l 1,4,-1
 600 0 l 1,5,-1
 100 0 l 1,0,-1
EndSplineSet
EndChar

StartChar: M
Encoding: 77 77 48
Width: 700
GlyphClass: 1
Flags: W
LayerCount: 2
Fore
SplineSet
100 0 m 1,0,-1
 100 700 l 1,1,-1
 200 700 l 1,2,-1
 200 600 l 1,3,-1
 300 600 l 1,4,-1
 300 500 l 1,5,-1
 200 500 l 1,6,-1
 200 0 l 1,7,-1
 100 0 l 1,0,-1
300 500 m 1,8,-1
 400 500 l 1,9,-1
 400 300 l 1,10,-1
 300 300 l 1,11,-1
 300 500 l 1,8,-1
400 500 m 1,12,-1
 400 600 l 1,13,-1
 500 600 l 1,14,-1
 500 700 l 1,15,-1
 600 700 l 1,16,-1
 600 0 l 1,17,-1
 500 0 l 1,18,-1
 500 500 l 1,19,-1
 400 500 l 1,12,-1
EndSplineSet
EndChar

StartChar: N
Encoding: 78 78 49
Width: 700
GlyphClass: 1
Flags: W
LayerCount: 2
Fore
SplineSet
100 0 m 1,0,-1
 100 700 l 1,1,-1
 200 700 l 1,2,-1
 200 500 l 1,3,-1
 300 500 l 1,4,-1
 300 400 l 1,5,-1
 200 400 l 1,6,-1
 200 0 l 1,7,-1
 100 0 l 1,0,-1
300 400 m 1,8,-1
 400 400 l 1,9,-1
 400 300 l 1,10,-1
 300 300 l 1,11,-1
 300 400 l 1,8,-1
400 200 m 1,12,-1
 400 300 l 1,13,-1
 500 300 l 1,14,-1
 500 700 l 1,15,-1
 600 700 l 1,16,-1
 600 0 l 1,17,-1
 500 0 l 1,18,-1
 500 200 l 1,19,-1
 400 200 l 1,12,-1
EndSplineSet
EndChar

StartChar: O
Encoding: 79 79 50
Width: 700
GlyphClass: 1
Flags: W
LayerCount: 2
Fore
SplineSet
100 100 m 1,0,-1
 100 600 l 1,1,-1
 200 600 l 1,2,-1
 200 100 l 1,3,-1
 100 100 l 1,0,-1
500 100 m 1,4,-1
 500 0 l 1,5,-1
 200 0 l 1,6,-1
 200 100 l 1,7,-1
 500 100 l 1,4,-1
500 700 m 1,8,-1
 500 600 l 1,9,-1
 200 600 l 1,10,-1
 200 700 l 1,11,-1
 500 700 l 1,8,-1
500 600 m 1,12,-1
 600 600 l 1,13,-1
 600 100 l 1,14,-1
 500 100 l 1,15,-1
 500 600 l 1,12,-1
EndSplineSet
EndChar

StartChar: P
Encoding: 80 80 51
Width: 700
GlyphClass: 1
Flags: W
LayerCount: 2
Fore
SplineSet
100 0 m 1,0,-1
 100 700 l 1,1,-1
 500 700 l 1,2,-1
 500 600 l 1,3,-1
 200 600 l 1,4,-1
 200 400 l 1,5,-1
 500 400 l 1,6,-1
 500 300 l 1,7,-1
 200 300 l 1,8,-1
 200 0 l 1,9,-1
 100 0 l 1,0,-1
500 400 m 1,10,-1
 500 600 l 1,11,-1
 600 600 l 1,12,-1
 600 400 l 1,13,-1
 500 400 l 1,10,-1
EndSplineSet
EndChar

StartChar: Q
Encoding: 81 81 52
Width: 700
GlyphClass: 1
Flags: W
LayerCount: 2
Fore
SplineSet
100 100 m 1,0,-1
 100 600 l 1,1,-1
 200 600 l 1,2,-1
 200 100 l 1,3,-1
 100 100 l 1,0,-1
200 100 m 1,4,-1
 400 100 l 1,5,-1
 400 0 l 1,6,-1
 200 0 l 1,7,-1
 200 100 l 1,4,-1
200 600 m 1,8,-1
 200 700 l 1,9,-1
 500 700 l 1,10,-1
 500 600 l 1,11,-1
 200 600 l 1,8,-1
300 200 m 1,12,-1
 300 300 l 1,13,-1
 400 300 l 1,14,-1
 400 200 l 1,15,-1
 300 200 l 1,12,-1
400 200 m 1,16,-1
 500 200 l 1,17,-1
 500 100 l 1,18,-1
 400 100 l 1,19,-1
 400 200 l 1,16,-1
500 200 m 1,20,-1
 500 600 l 1,21,-1
 600 600 l 1,22,-1
 600 200 l 1,23,-1
 500 200 l 1,20,-1
500 100 m 1,24,-1
 600 100 l 1,25,-1
 600 0 l 1,26,-1
 500 0 l 1,27,-1
 500 100 l 1,24,-1
EndSplineSet
EndChar

StartChar: R
Encoding: 82 82 53
Width: 700
GlyphClass: 1
Flags: W
LayerCount: 2
Fore
SplineSet
100 0 m 1,0,-1
 100 700 l 1,1,-1
 500 700 l 1,2,-1
 500 600 l 1,3,-1
 200 600 l 1,4,-1
 200 400 l 1,5,-1
 500 400 l 1,6,-1
 500 300 l 1,7,-1
 400 300 l 1,8,-1
 400 200 l 1,9,-1
 300 200 l 1,10,-1
 300 300 l 1,11,-1
 200 300 l 1,12,-1
 200 0 l 1,13,-1
 100 0 l 1,0,-1
400 200 m 1,14,-1
 500 200 l 1,15,-1
 500 100 l 1,16,-1
 400 100 l 1,17,-1
 400 200 l 1,14,-1
500 100 m 1,18,-1
 600 100 l 1,19,-1
 600 0 l 1,20,-1
 500 0 l 1,21,-1
 500 100 l 1,18,-1
500 400 m 1,22,-1
 500 600 l 1,23,-1
 600 600 l 1,24,-1
 600 400 l 1,25,-1
 500 400 l 1,22,-1
EndSplineSet
EndChar

StartChar: S
Encoding: 83 83 54
Width: 700
GlyphClass: 1
Flags: W
LayerCount: 2
Fore
SplineSet
100 100 m 1,0,-1
 100 200 l 1,1,-1
 200 200 l 1,2,-1
 200 100 l 1,3,-1
 100 100 l 1,0,-1
100 400 m 1,4,-1
 100 600 l 1,5,-1
 200 600 l 1,6,-1
 200 400 l 1,7,-1
 100 400 l 1,4,-1
200 100 m 1,8,-1
 500 100 l 1,9,-1
 500 0 l 1,10,-1
 200 0 l 1,11,-1
 200 100 l 1,8,-1
200 400 m 1,12,-1
 500 400 l 1,13,-1
 500 300 l 1,14,-1
 200 300 l 1,15,-1
 200 400 l 1,12,-1
200 600 m 1,16,-1
 200 700 l 1,17,-1
 500 700 l 1,18,-1
 500 600 l 1,19,-1
 200 600 l 1,16,-1
500 100 m 1,20,-1
 500 300 l 1,21,-1
 600 300 l 1,22,-1
 600 100 l 1,23,-1
 500 100 l 1,20,-1
500 500 m 1,24,-1
 500 600 l 1,25,-1
 600 600 l 1,26,-1
 600 500 l 1,27,-1
 500 500 l 1,24,-1
EndSplineSet
EndChar

StartChar: T
Encoding: 84 84 55
Width: 700
GlyphClass: 1
Flags: W
LayerCount: 2
Fore
SplineSet
400 0 m 1,0,-1
 300 0 l 1,1,-1
 300 600 l 1,2,-1
 100 600 l 1,3,-1
 100 700 l 1,4,-1
 600 700 l 1,5,-1
 600 600 l 1,6,-1
 400 600 l 1,7,-1
 400 0 l 1,0,-1
EndSplineSet
EndChar

StartChar: U
Encoding: 85 85 56
Width: 700
GlyphClass: 1
Flags: W
LayerCount: 2
Fore
SplineSet
100 100 m 1,0,-1
 100 700 l 1,1,-1
 200 700 l 1,2,-1
 200 100 l 1,3,-1
 100 100 l 1,0,-1
500 100 m 1,4,-1
 500 0 l 1,5,-1
 200 0 l 1,6,-1
 200 100 l 1,7,-1
 500 100 l 1,4,-1
500 700 m 1,8,-1
 600 700 l 1,9,-1
 600 100 l 1,10,-1
 500 100 l 1,11,-1
 500 700 l 1,8,-1
EndSplineSet
EndChar

StartChar: V
Encoding: 86 86 57
Width: 700
GlyphClass: 1
Flags: W
LayerCount: 2
Fore
SplineSet
100 200 m 1,0,-1
 100 700 l 1,1,-1
 200 700 l 1,2,-1
 200 200 l 1,3,-1
 100 200 l 1,0,-1
200 200 m 1,4,-1
 300 200 l 1,5,-1
 300 100 l 1,6,-1
 200 100 l 1,7,-1
 200 200 l 1,4,-1
300 100 m 1,8,-1
 400 100 l 1,9,-1
 400 0 l 1,10,-1
 300 0 l 1,11,-1
 300 100 l 1,8,-1
400 100 m 1,12,-1
 400 200 l 1,13,-1
 500 200 l 1,14,-1
 500 100 l 1,15,-1
 400 100 l 1,12,-1
500 200 m 1,16,-1
 500 700 l 1,17,-1
 600 700 l 1,18,-1
 600 200 l 1,19,-1
 500 200 l 1,16,-1
EndSplineSet
EndChar

StartChar: W
Encoding: 87 87 58
Width: 700
GlyphClass: 1
Flags: W
LayerCount: 2
Fore
SplineSet
100 0 m 1,0,-1
 100 700 l 1,1,-1
 200 700 l 1,2,-1
 200 200 l 1,3,-1
 300 200 l 1,4,-1
 300 100 l 1,5,-1
 200 100 l 1,6,-1
 200 0 l 1,7,-1
 100 0 l 1,0,-1
300 200 m 1,8,-1
 300 300 l 1,9,-1
 400 300 l 1,10,-1
 400 200 l 1,11,-1
 300 200 l 1,8,-1
400 200 m 1,12,-1
 500 200 l 1,13,-1
 500 700 l 1,14,-1
 600 700 l 1,15,-1
 600 0 l 1,16,-1
 500 0 l 1,17,-1
 500 100 l 1,18,-1
 400 100 l 1,19,-1
 400 200 l 1,12,-1
EndSplineSet
EndChar

StartChar: X
Encoding: 88 88 59
Width: 700
GlyphClass: 1
Flags: W
LayerCount: 2
Fore
SplineSet
200 200 m 1,0,-1
 200 0 l 1,1,-1
 100 0 l 1,2,-1
 100 200 l 1,3,-1
 200 200 l 1,0,-1
200 500 m 1,4,-1
 100 500 l 1,5,-1
 100 700 l 1,6,-1
 200 700 l 1,7,-1
 200 500 l 1,4,-1
200 400 m 1,8,-1
 200 500 l 1,9,-1
 300 500 l 1,10,-1
 300 400 l 1,11,-1
 200 400 l 1,8,-1
200 300 m 1,12,-1
 300 300 l 1,13,-1
 300 200 l 1,14,-1
 200 200 l 1,15,-1
 200 300 l 1,12,-1
400 200 m 1,16,-1
 400 300 l 1,17,-1
 500 300 l 1,18,-1
 500 200 l 1,19,-1
 400 200 l 1,16,-1
400 400 m 1,20,-1
 400 500 l 1,21,-1
 500 500 l 1,22,-1
 500 400 l 1,23,-1
 400 400 l 1,20,-1
400 300 m 1,24,-1
 300 300 l 1,25,-1
 300 400 l 1,26,-1
 400 400 l 1,27,-1
 400 300 l 1,24,-1
600 0 m 1,28,-1
 500 0 l 1,29,-1
 500 200 l 1,30,-1
 600 200 l 1,31,-1
 600 0 l 1,28,-1
600 500 m 1,32,-1
 500 500 l 1,33,-1
 500 700 l 1,34,-1
 600 700 l 1,35,-1
 600 500 l 1,32,-1
EndSplineSet
EndChar

StartChar: Y
Encoding: 89 89 60
Width: 700
GlyphClass: 1
Flags: W
LayerCount: 2
Fore
SplineSet
100 500 m 1,0,-1
 100 700 l 1,1,-1
 200 700 l 1,2,-1
 200 500 l 1,3,-1
 100 500 l 1,0,-1
200 500 m 1,4,-1
 300 500 l 1,5,-1
 300 400 l 1,6,-1
 200 400 l 1,7,-1
 200 500 l 1,4,-1
300 0 m 1,8,-1
 300 400 l 1,9,-1
 400 400 l 1,10,-1
 400 0 l 1,11,-1
 300 0 l 1,8,-1
400 400 m 1,12,-1
 400 500 l 1,13,-1
 500 500 l 1,14,-1
 500 400 l 1,15,-1
 400 400 l 1,12,-1
500 500 m 1,16,-1
 500 700 l 1,17,-1
 600 700 l 1,18,-1
 600 500 l 1,19,-1
 500 500 l 1,16,-1
EndSplineSet
EndChar

StartChar: Z
Encoding: 90 90 61
Width: 700
GlyphClass: 1
Flags: W
LayerCount: 2
Fore
SplineSet
100 200 m 1,0,-1
 200 200 l 1,1,-1
 200 100 l 1,2,-1
 600 100 l 1,3,-1
 600 0 l 1,4,-1
 100 0 l 1,5,-1
 100 200 l 1,0,-1
100 600 m 1,6,-1
 100 700 l 1,7,-1
 600 700 l 1,8,-1
 600 500 l 1,9,-1
 500 500 l 1,10,-1
 500 600 l 1,11,-1
 100 600 l 1,6,-1
200 200 m 1,12,-1
 200 300 l 1,13,-1
 300 300 l 1,14,-1
 300 200 l 1,15,-1
 200 200 l 1,12,-1
300 300 m 1,16,-1
 300 400 l 1,17,-1
 400 400 l 1,18,-1
 400 300 l 1,19,-1
 300 300 l 1,16,-1
400 400 m 1,20,-1
 400 500 l 1,21,-1
 500 500 l 1,22,-1
 500 400 l 1,23,-1
 400 400 l 1,20,-1
EndSplineSet
EndChar

StartChar: bracketleft
Encoding: 91 91 62
Width: 700
GlyphClass: 1
Flags: W
LayerCount: 2
Fore
SplineSet
100 0 m 1,0,-1
 100 700 l 1,1,-1
 600 700 l 1,2,-1
 600 600 l 1,3,-1
 300 600 l 1,4,-1
 300 100 l 1,5,-1
 600 100 l 1,6,-1
 600 0 l 1,7,-1
 100 0 l 1,0,-1
EndSplineSet
EndChar

StartChar: backslash
Encoding: 92 92 63
Width: 700
GlyphClass: 1
Flags: W
LayerCount: 2
Fore
SplineSet
100 500 m 1,0,-1
 100 600 l 1,1,-1
 200 600 l 1,2,-1
 200 500 l 1,3,-1
 100 500 l 1,0,-1
200 500 m 1,4,-1
 300 500 l 1,5,-1
 300 400 l 1,6,-1
 200 400 l 1,7,-1
 200 500 l 1,4,-1
300 400 m 1,8,-1
 400 400 l 1,9,-1
 400 300 l 1,10,-1
 300 300 l 1,11,-1
 300 400 l 1,8,-1
400 200 m 1,12,-1
 400 300 l 1,13,-1
 500 300 l 1,14,-1
 500 200 l 1,15,-1
 400 200 l 1,12,-1
500 200 m 1,16,-1
 600 200 l 1,17,-1
 600 100 l 1,18,-1
 500 100 l 1,19,-1
 500 200 l 1,16,-1
EndSplineSet
EndChar

StartChar: bracketright
Encoding: 93 93 64
Width: 700
GlyphClass: 1
Flags: W
LayerCount: 2
Fore
SplineSet
400 100 m 1,0,-1
 400 600 l 1,1,-1
 100 600 l 1,2,-1
 100 700 l 1,3,-1
 600 700 l 1,4,-1
 600 0 l 1,5,-1
 100 0 l 1,6,-1
 100 100 l 1,7,-1
 400 100 l 1,0,-1
EndSplineSet
EndChar

StartChar: asciicircum
Encoding: 94 94 65
Width: 700
GlyphClass: 1
Flags: W
LayerCount: 2
Fore
SplineSet
100 400 m 1,0,-1
 100 500 l 1,1,-1
 200 500 l 1,2,-1
 200 400 l 1,3,-1
 100 400 l 1,0,-1
200 500 m 1,4,-1
 200 600 l 1,5,-1
 300 600 l 1,6,-1
 300 500 l 1,7,-1
 200 500 l 1,4,-1
300 600 m 1,8,-1
 300 700 l 1,9,-1
 400 700 l 1,10,-1
 400 600 l 1,11,-1
 300 600 l 1,8,-1
400 500 m 1,12,-1
 400 600 l 1,13,-1
 500 600 l 1,14,-1
 500 500 l 1,15,-1
 400 500 l 1,12,-1
500 500 m 1,16,-1
 600 500 l 1,17,-1
 600 400 l 1,18,-1
 500 400 l 1,19,-1
 500 500 l 1,16,-1
EndSplineSet
EndChar

StartChar: underscore
Encoding: 95 95 66
Width: 700
GlyphClass: 1
Flags: W
LayerCount: 2
Fore
SplineSet
0 -100 m 1,0,-1
 0 0 l 1,1,-1
 700 0 l 1,2,-1
 700 -100 l 1,3,-1
 0 -100 l 1,0,-1
EndSplineSet
EndChar

StartChar: grave
Encoding: 96 96 67
Width: 700
GlyphClass: 1
Flags: W
LayerCount: 2
Fore
SplineSet
400 500 m 1,0,-1
 500 500 l 1,1,-1
 500 400 l 1,2,-1
 400 400 l 1,3,-1
 400 500 l 1,0,-1
400 700 m 1,4,-1
 400 500 l 1,5,-1
 300 500 l 1,6,-1
 300 700 l 1,7,-1
 400 700 l 1,4,-1
EndSplineSet
EndChar

StartChar: a
Encoding: 97 97 68
Width: 700
GlyphClass: 1
Flags: W
LayerCount: 2
Fore
SplineSet
100 100 m 1,0,-1
 100 200 l 1,1,-1
 200 200 l 1,2,-1
 200 100 l 1,3,-1
 100 100 l 1,0,-1
200 200 m 1,4,-1
 200 300 l 1,5,-1
 500 300 l 1,6,-1
 500 400 l 1,7,-1
 600 400 l 1,8,-1
 600 0 l 1,9,-1
 200 0 l 1,10,-1
 200 100 l 1,11,-1
 500 100 l 1,12,-1
 500 200 l 1,13,-1
 200 200 l 1,4,-1
200 400 m 1,14,-1
 200 500 l 1,15,-1
 500 500 l 1,16,-1
 500 400 l 1,17,-1
 200 400 l 1,14,-1
EndSplineSet
EndChar

StartChar: b
Encoding: 98 98 69
Width: 700
GlyphClass: 1
Flags: W
LayerCount: 2
Fore
SplineSet
100 0 m 1,0,-1
 100 700 l 1,1,-1
 200 700 l 1,2,-1
 200 500 l 1,3,-1
 500 500 l 1,4,-1
 500 400 l 1,5,-1
 200 400 l 1,6,-1
 200 100 l 1,7,-1
 500 100 l 1,8,-1
 500 0 l 1,9,-1
 100 0 l 1,0,-1
500 100 m 1,10,-1
 500 400 l 1,11,-1
 600 400 l 1,12,-1
 600 100 l 1,13,-1
 500 100 l 1,10,-1
EndSplineSet
EndChar

StartChar: c
Encoding: 99 99 70
Width: 700
GlyphClass: 1
Flags: W
LayerCount: 2
Fore
SplineSet
100 100 m 1,0,-1
 100 400 l 1,1,-1
 200 400 l 1,2,-1
 200 100 l 1,3,-1
 100 100 l 1,0,-1
200 100 m 1,4,-1
 600 100 l 1,5,-1
 600 0 l 1,6,-1
 200 0 l 1,7,-1
 200 100 l 1,4,-1
200 400 m 1,8,-1
 200 500 l 1,9,-1
 600 500 l 1,10,-1
 600 400 l 1,11,-1
 200 400 l 1,8,-1
EndSplineSet
EndChar

StartChar: d
Encoding: 100 100 71
Width: 700
GlyphClass: 1
Flags: W
LayerCount: 2
Fore
SplineSet
100 100 m 1,0,-1
 100 400 l 1,1,-1
 200 400 l 1,2,-1
 200 100 l 1,3,-1
 100 100 l 1,0,-1
500 100 m 1,4,-1
 500 400 l 1,5,-1
 200 400 l 1,6,-1
 200 500 l 1,7,-1
 500 500 l 1,8,-1
 500 700 l 1,9,-1
 600 700 l 1,10,-1
 600 0 l 1,11,-1
 200 0 l 1,12,-1
 200 100 l 1,13,-1
 500 100 l 1,4,-1
EndSplineSet
EndChar

StartChar: e
Encoding: 101 101 72
Width: 700
GlyphClass: 1
Flags: W
LayerCount: 2
Fore
SplineSet
100 100 m 1,0,-1
 100 400 l 1,1,-1
 200 400 l 1,2,-1
 200 300 l 1,3,-1
 500 300 l 1,4,-1
 500 400 l 1,5,-1
 600 400 l 1,6,-1
 600 200 l 1,7,-1
 200 200 l 1,8,-1
 200 100 l 1,9,-1
 100 100 l 1,0,-1
200 100 m 1,10,-1
 600 100 l 1,11,-1
 600 0 l 1,12,-1
 200 0 l 1,13,-1
 200 100 l 1,10,-1
200 400 m 1,14,-1
 200 500 l 1,15,-1
 500 500 l 1,16,-1
 500 400 l 1,17,-1
 200 400 l 1,14,-1
EndSplineSet
EndChar

StartChar: f
Encoding: 102 102 73
Width: 700
GlyphClass: 1
Flags: W
LayerCount: 2
Fore
SplineSet
100 300 m 1,0,-1
 100 400 l 1,1,-1
 200 400 l 1,2,-1
 200 600 l 1,3,-1
 300 600 l 1,4,-1
 300 400 l 1,5,-1
 500 400 l 1,6,-1
 500 300 l 1,7,-1
 300 300 l 1,8,-1
 300 0 l 1,9,-1
 200 0 l 1,10,-1
 200 300 l 1,11,-1
 100 300 l 1,0,-1
300 600 m 1,12,-1
 300 700 l 1,13,-1
 500 700 l 1,14,-1
 500 600 l 1,15,-1
 300 600 l 1,12,-1
500 500 m 1,16,-1
 500 600 l 1,17,-1
 600 600 l 1,18,-1
 600 500 l 1,19,-1
 500 500 l 1,16,-1
EndSplineSet
EndChar

StartChar: g
Encoding: 103 103 74
Width: 700
GlyphClass: 1
Flags: W
LayerCount: 2
Fore
SplineSet
100 100 m 1,0,-1
 100 400 l 1,1,-1
 200 400 l 1,2,-1
 200 100 l 1,3,-1
 100 100 l 1,0,-1
200 100 m 1,4,-1
 500 100 l 1,5,-1
 500 400 l 1,6,-1
 200 400 l 1,7,-1
 200 500 l 1,8,-1
 600 500 l 1,9,-1
 600 -200 l 1,10,-1
 500 -200 l 1,11,-1
 500 0 l 1,12,-1
 200 0 l 1,13,-1
 200 100 l 1,4,-1
200 -200 m 1,14,-1
 500 -200 l 1,15,-1
 500 -300 l 1,16,-1
 200 -300 l 1,17,-1
 200 -200 l 1,14,-1
EndSplineSet
EndChar

StartChar: h
Encoding: 104 104 75
Width: 700
GlyphClass: 1
Flags: W
LayerCount: 2
Fore
SplineSet
100 0 m 1,0,-1
 100 700 l 1,1,-1
 200 700 l 1,2,-1
 200 500 l 1,3,-1
 500 500 l 1,4,-1
 500 400 l 1,5,-1
 200 400 l 1,6,-1
 200 0 l 1,7,-1
 100 0 l 1,0,-1
500 0 m 1,8,-1
 500 400 l 1,9,-1
 600 400 l 1,10,-1
 600 0 l 1,11,-1
 500 0 l 1,8,-1
EndSplineSet
EndChar

StartChar: i
Encoding: 105 105 76
Width: 700
GlyphClass: 1
Flags: W
LayerCount: 2
Fore
SplineSet
200 0 m 1,0,-1
 200 100 l 1,1,-1
 300 100 l 1,2,-1
 300 400 l 1,3,-1
 200 400 l 1,4,-1
 200 500 l 1,5,-1
 400 500 l 1,6,-1
 400 100 l 1,7,-1
 500 100 l 1,8,-1
 500 0 l 1,9,-1
 200 0 l 1,0,-1
300 600 m 1,10,-1
 300 700 l 1,11,-1
 400 700 l 1,12,-1
 400 600 l 1,13,-1
 300 600 l 1,10,-1
EndSplineSet
EndChar

StartChar: j
Encoding: 106 106 77
Width: 700
GlyphClass: 1
Flags: W
LayerCount: 2
Fore
SplineSet
100 -200 m 1,0,-1
 100 -100 l 1,1,-1
 200 -100 l 1,2,-1
 200 -200 l 1,3,-1
 100 -200 l 1,0,-1
200 -200 m 1,4,-1
 400 -200 l 1,5,-1
 400 -300 l 1,6,-1
 200 -300 l 1,7,-1
 200 -200 l 1,4,-1
300 400 m 1,8,-1
 300 500 l 1,9,-1
 500 500 l 1,10,-1
 500 -200 l 1,11,-1
 400 -200 l 1,12,-1
 400 400 l 1,13,-1
 300 400 l 1,8,-1
400 600 m 1,14,-1
 400 700 l 1,15,-1
 500 700 l 1,16,-1
 500 600 l 1,17,-1
 400 600 l 1,14,-1
EndSplineSet
EndChar

StartChar: k
Encoding: 107 107 78
Width: 700
GlyphClass: 1
Flags: W
LayerCount: 2
Fore
SplineSet
100 0 m 1,0,-1
 100 700 l 1,1,-1
 200 700 l 1,2,-1
 200 300 l 1,3,-1
 400 300 l 1,4,-1
 400 200 l 1,5,-1
 200 200 l 1,6,-1
 200 0 l 1,7,-1
 100 0 l 1,0,-1
400 200 m 1,8,-1
 500 200 l 1,9,-1
 500 100 l 1,10,-1
 400 100 l 1,11,-1
 400 200 l 1,8,-1
400 300 m 1,12,-1
 400 400 l 1,13,-1
 500 400 l 1,14,-1
 500 300 l 1,15,-1
 400 300 l 1,12,-1
500 100 m 1,16,-1
 600 100 l 1,17,-1
 600 0 l 1,18,-1
 500 0 l 1,19,-1
 500 100 l 1,16,-1
500 400 m 1,20,-1
 500 500 l 1,21,-1
 600 500 l 1,22,-1
 600 400 l 1,23,-1
 500 400 l 1,20,-1
EndSplineSet
EndChar

StartChar: l
Encoding: 108 108 79
Width: 700
GlyphClass: 1
Flags: W
LayerCount: 2
Fore
SplineSet
400 100 m 1,0,-1
 500 100 l 1,1,-1
 500 0 l 1,2,-1
 200 0 l 1,3,-1
 200 100 l 1,4,-1
 300 100 l 1,5,-1
 300 600 l 1,6,-1
 200 600 l 1,7,-1
 200 700 l 1,8,-1
 400 700 l 1,9,-1
 400 100 l 1,0,-1
EndSplineSet
EndChar

StartChar: m
Encoding: 109 109 80
Width: 700
GlyphClass: 1
Flags: W
LayerCount: 2
Fore
SplineSet
100 0 m 1,0,-1
 100 500 l 1,1,-1
 300 500 l 1,2,-1
 300 400 l 1,3,-1
 200 400 l 1,4,-1
 200 0 l 1,5,-1
 100 0 l 1,0,-1
300 0 m 1,6,-1
 300 400 l 1,7,-1
 400 400 l 1,8,-1
 400 0 l 1,9,-1
 300 0 l 1,6,-1
400 400 m 1,10,-1
 400 500 l 1,11,-1
 500 500 l 1,12,-1
 500 400 l 1,13,-1
 400 400 l 1,10,-1
500 0 m 1,14,-1
 500 400 l 1,15,-1
 600 400 l 1,16,-1
 600 0 l 1,17,-1
 500 0 l 1,14,-1
EndSplineSet
EndChar

StartChar: n
Encoding: 110 110 81
Width: 700
GlyphClass: 1
Flags: W
LayerCount: 2
Fore
SplineSet
100 0 m 1,0,-1
 100 500 l 1,1,-1
 500 500 l 1,2,-1
 500 400 l 1,3,-1
 200 400 l 1,4,-1
 200 0 l 1,5,-1
 100 0 l 1,0,-1
500 0 m 1,6,-1
 500 400 l 1,7,-1
 600 400 l 1,8,-1
 600 0 l 1,9,-1
 500 0 l 1,6,-1
EndSplineSet
EndChar

StartChar: o
Encoding: 111 111 82
Width: 700
GlyphClass: 1
Flags: W
LayerCount: 2
Fore
SplineSet
100 100 m 1,0,-1
 100 400 l 1,1,-1
 200 400 l 1,2,-1
 200 100 l 1,3,-1
 100 100 l 1,0,-1
500 100 m 1,4,-1
 500 0 l 1,5,-1
 200 0 l 1,6,-1
 200 100 l 1,7,-1
 500 100 l 1,4,-1
500 500 m 1,8,-1
 500 400 l 1,9,-1
 200 400 l 1,10,-1
 200 500 l 1,11,-1
 500 500 l 1,8,-1
500 400 m 1,12,-1
 600 400 l 1,13,-1
 600 100 l 1,14,-1
 500 100 l 1,15,-1
 500 400 l 1,12,-1
EndSplineSet
EndChar

StartChar: p
Encoding: 112 112 83
Width: 700
GlyphClass: 1
Flags: W
LayerCount: 2
Fore
SplineSet
500 100 m 1,0,-1
 500 0 l 1,1,-1
 200 0 l 1,2,-1
 200 -300 l 1,3,-1
 100 -300 l 1,4,-1
 100 500 l 1,5,-1
 500 500 l 1,6,-1
 500 400 l 1,7,-1
 200 400 l 1,8,-1
 200 100 l 1,9,-1
 500 100 l 1,0,-1
500 400 m 1,10,-1
 600 400 l 1,11,-1
 600 100 l 1,12,-1
 500 100 l 1,13,-1
 500 400 l 1,10,-1
EndSplineSet
EndChar

StartChar: q
Encoding: 113 113 84
Width: 700
GlyphClass: 1
Flags: W
LayerCount: 2
Fore
SplineSet
100 100 m 1,0,-1
 100 400 l 1,1,-1
 200 400 l 1,2,-1
 200 100 l 1,3,-1
 100 100 l 1,0,-1
500 100 m 1,4,-1
 500 400 l 1,5,-1
 200 400 l 1,6,-1
 200 500 l 1,7,-1
 600 500 l 1,8,-1
 600 -300 l 1,9,-1
 500 -300 l 1,10,-1
 500 0 l 1,11,-1
 200 0 l 1,12,-1
 200 100 l 1,13,-1
 500 100 l 1,4,-1
EndSplineSet
EndChar

StartChar: r
Encoding: 114 114 85
Width: 700
GlyphClass: 1
Flags: W
LayerCount: 2
Fore
SplineSet
100 0 m 1,0,-1
 100 500 l 1,1,-1
 200 500 l 1,2,-1
 200 400 l 1,3,-1
 300 400 l 1,4,-1
 300 300 l 1,5,-1
 200 300 l 1,6,-1
 200 0 l 1,7,-1
 100 0 l 1,0,-1
600 500 m 1,8,-1
 600 400 l 1,9,-1
 300 400 l 1,10,-1
 300 500 l 1,11,-1
 600 500 l 1,8,-1
EndSplineSet
EndChar

StartChar: s
Encoding: 115 115 86
Width: 700
GlyphClass: 1
Flags: W
LayerCount: 2
Fore
SplineSet
100 0 m 1,0,-1
 100 100 l 1,1,-1
 500 100 l 1,2,-1
 500 0 l 1,3,-1
 100 0 l 1,0,-1
100 300 m 1,4,-1
 100 400 l 1,5,-1
 200 400 l 1,6,-1
 200 300 l 1,7,-1
 100 300 l 1,4,-1
200 200 m 1,8,-1
 200 300 l 1,9,-1
 500 300 l 1,10,-1
 500 200 l 1,11,-1
 200 200 l 1,8,-1
200 400 m 1,12,-1
 200 500 l 1,13,-1
 600 500 l 1,14,-1
 600 400 l 1,15,-1
 200 400 l 1,12,-1
500 200 m 1,16,-1
 600 200 l 1,17,-1
 600 100 l 1,18,-1
 500 100 l 1,19,-1
 500 200 l 1,16,-1
EndSplineSet
EndChar

StartChar: t
Encoding: 116 116 87
Width: 700
GlyphClass: 1
Flags: W
LayerCount: 2
Fore
SplineSet
100 400 m 1,0,-1
 100 500 l 1,1,-1
 200 500 l 1,2,-1
 200 700 l 1,3,-1
 300 700 l 1,4,-1
 300 500 l 1,5,-1
 500 500 l 1,6,-1
 500 400 l 1,7,-1
 300 400 l 1,8,-1
 300 100 l 1,9,-1
 200 100 l 1,10,-1
 200 400 l 1,11,-1
 100 400 l 1,0,-1
300 100 m 1,12,-1
 500 100 l 1,13,-1
 500 0 l 1,14,-1
 300 0 l 1,15,-1
 300 100 l 1,12,-1
500 100 m 1,16,-1
 500 200 l 1,17,-1
 600 200 l 1,18,-1
 600 100 l 1,19,-1
 500 100 l 1,16,-1
EndSplineSet
EndChar

StartChar: u
Encoding: 117 117 88
Width: 700
GlyphClass: 1
Flags: W
LayerCount: 2
Fore
SplineSet
100 100 m 1,0,-1
 100 500 l 1,1,-1
 200 500 l 1,2,-1
 200 100 l 1,3,-1
 100 100 l 1,0,-1
200 100 m 1,4,-1
 400 100 l 1,5,-1
 400 0 l 1,6,-1
 200 0 l 1,7,-1
 200 100 l 1,4,-1
400 100 m 1,8,-1
 400 200 l 1,9,-1
 500 200 l 1,10,-1
 500 500 l 1,11,-1
 600 500 l 1,12,-1
 600 0 l 1,13,-1
 500 0 l 1,14,-1
 500 100 l 1,15,-1
 400 100 l 1,8,-1
EndSplineSet
EndChar

StartChar: v
Encoding: 118 118 89
Width: 700
GlyphClass: 1
Flags: W
LayerCount: 2
Fore
SplineSet
100 200 m 1,0,-1
 100 500 l 1,1,-1
 200 500 l 1,2,-1
 200 200 l 1,3,-1
 100 200 l 1,0,-1
200 200 m 1,4,-1
 300 200 l 1,5,-1
 300 100 l 1,6,-1
 200 100 l 1,7,-1
 200 200 l 1,4,-1
300 100 m 1,8,-1
 400 100 l 1,9,-1
 400 0 l 1,10,-1
 300 0 l 1,11,-1
 300 100 l 1,8,-1
400 100 m 1,12,-1
 400 200 l 1,13,-1
 500 200 l 1,14,-1
 500 100 l 1,15,-1
 400 100 l 1,12,-1
500 200 m 1,16,-1
 500 500 l 1,17,-1
 600 500 l 1,18,-1
 600 200 l 1,19,-1
 500 200 l 1,16,-1
EndSplineSet
EndChar

StartChar: w
Encoding: 119 119 90
Width: 700
GlyphClass: 1
Flags: W
LayerCount: 2
Fore
SplineSet
100 0 m 1,0,-1
 100 500 l 1,1,-1
 200 500 l 1,2,-1
 200 100 l 1,3,-1
 300 100 l 1,4,-1
 300 0 l 1,5,-1
 100 0 l 1,0,-1
300 100 m 1,6,-1
 300 300 l 1,7,-1
 400 300 l 1,8,-1
 400 100 l 1,9,-1
 300 100 l 1,6,-1
400 100 m 1,10,-1
 500 100 l 1,11,-1
 500 500 l 1,12,-1
 600 500 l 1,13,-1
 600 0 l 1,14,-1
 400 0 l 1,15,-1
 400 100 l 1,10,-1
EndSplineSet
EndChar

StartChar: x
Encoding: 120 120 91
Width: 700
GlyphClass: 1
Flags: W
LayerCount: 2
Fore
SplineSet
200 100 m 1,0,-1
 200 200 l 1,1,-1
 300 200 l 1,2,-1
 300 100 l 1,3,-1
 200 100 l 1,0,-1
200 0 m 1,4,-1
 100 0 l 1,5,-1
 100 100 l 1,6,-1
 200 100 l 1,7,-1
 200 0 l 1,4,-1
200 500 m 1,8,-1
 200 400 l 1,9,-1
 100 400 l 1,10,-1
 100 500 l 1,11,-1
 200 500 l 1,8,-1
200 400 m 1,12,-1
 300 400 l 1,13,-1
 300 300 l 1,14,-1
 200 300 l 1,15,-1
 200 400 l 1,12,-1
400 200 m 1,16,-1
 500 200 l 1,17,-1
 500 100 l 1,18,-1
 400 100 l 1,19,-1
 400 200 l 1,16,-1
400 300 m 1,20,-1
 400 200 l 1,21,-1
 300 200 l 1,22,-1
 300 300 l 1,23,-1
 400 300 l 1,20,-1
400 400 m 1,24,-1
 500 400 l 1,25,-1
 500 300 l 1,26,-1
 400 300 l 1,27,-1
 400 400 l 1,24,-1
600 100 m 1,28,-1
 600 0 l 1,29,-1
 500 0 l 1,30,-1
 500 100 l 1,31,-1
 600 100 l 1,28,-1
600 500 m 1,32,-1
 600 400 l 1,33,-1
 500 400 l 1,34,-1
 500 500 l 1,35,-1
 600 500 l 1,32,-1
EndSplineSet
EndChar

StartChar: y
Encoding: 121 121 92
Width: 700
GlyphClass: 1
Flags: W
LayerCount: 2
Fore
SplineSet
100 100 m 1,0,-1
 100 500 l 1,1,-1
 200 500 l 1,2,-1
 200 100 l 1,3,-1
 100 100 l 1,0,-1
200 100 m 1,4,-1
 500 100 l 1,5,-1
 500 500 l 1,6,-1
 600 500 l 1,7,-1
 600 -200 l 1,8,-1
 500 -200 l 1,9,-1
 500 0 l 1,10,-1
 200 0 l 1,11,-1
 200 100 l 1,4,-1
200 -200 m 1,12,-1
 500 -200 l 1,13,-1
 500 -300 l 1,14,-1
 200 -300 l 1,15,-1
 200 -200 l 1,12,-1
EndSplineSet
EndChar

StartChar: z
Encoding: 122 122 93
Width: 700
GlyphClass: 1
Flags: W
LayerCount: 2
Fore
SplineSet
100 0 m 1,0,-1
 100 100 l 1,1,-1
 200 100 l 1,2,-1
 200 200 l 1,3,-1
 300 200 l 1,4,-1
 300 100 l 1,5,-1
 600 100 l 1,6,-1
 600 0 l 1,7,-1
 100 0 l 1,0,-1
100 400 m 1,8,-1
 100 500 l 1,9,-1
 600 500 l 1,10,-1
 600 400 l 1,11,-1
 500 400 l 1,12,-1
 500 300 l 1,13,-1
 400 300 l 1,14,-1
 400 400 l 1,15,-1
 100 400 l 1,8,-1
300 200 m 1,16,-1
 300 300 l 1,17,-1
 400 300 l 1,18,-1
 400 200 l 1,19,-1
 300 200 l 1,16,-1
EndSplineSet
EndChar

StartChar: braceleft
Encoding: 123 123 94
Width: 700
GlyphClass: 1
Flags: W
LayerCount: 2
Fore
SplineSet
100 300 m 1,0,-1
 100 400 l 1,1,-1
 200 400 l 1,2,-1
 200 600 l 1,3,-1
 300 600 l 1,4,-1
 300 700 l 1,5,-1
 600 700 l 1,6,-1
 600 600 l 1,7,-1
 400 600 l 1,8,-1
 400 400 l 1,9,-1
 300 400 l 1,10,-1
 300 300 l 1,11,-1
 400 300 l 1,12,-1
 400 100 l 1,13,-1
 600 100 l 1,14,-1
 600 0 l 1,15,-1
 300 0 l 1,16,-1
 300 100 l 1,17,-1
 200 100 l 1,18,-1
 200 300 l 1,19,-1
 100 300 l 1,0,-1
EndSplineSet
EndChar

StartChar: bar
Encoding: 124 124 95
Width: 700
GlyphClass: 1
Flags: W
LayerCount: 2
Fore
SplineSet
400 0 m 1,0,-1
 300 0 l 1,1,-1
 300 300 l 1,2,-1
 400 300 l 1,3,-1
 400 0 l 1,0,-1
400 400 m 1,4,-1
 300 400 l 1,5,-1
 300 700 l 1,6,-1
 400 700 l 1,7,-1
 400 400 l 1,4,-1
EndSplineSet
EndChar

StartChar: braceright
Encoding: 125 125 96
Width: 700
GlyphClass: 1
Flags: W
LayerCount: 2
Fore
SplineSet
100 0 m 1,0,-1
 100 100 l 1,1,-1
 300 100 l 1,2,-1
 300 300 l 1,3,-1
 400 300 l 1,4,-1
 400 400 l 1,5,-1
 300 400 l 1,6,-1
 300 600 l 1,7,-1
 100 600 l 1,8,-1
 100 700 l 1,9,-1
 400 700 l 1,10,-1
 400 600 l 1,11,-1
 500 600 l 1,12,-1
 500 400 l 1,13,-1
 600 400 l 1,14,-1
 600 300 l 1,15,-1
 500 300 l 1,16,-1
 500 100 l 1,17,-1
 400 100 l 1,18,-1
 400 0 l 1,19,-1
 100 0 l 1,0,-1
EndSplineSet
EndChar

StartChar: asciitilde
Encoding: 126 126 97
Width: 700
GlyphClass: 1
Flags: W
LayerCount: 2
Fore
SplineSet
100 500 m 1,0,-1
 100 600 l 1,1,-1
 200 600 l 1,2,-1
 200 500 l 1,3,-1
 100 500 l 1,0,-1
200 600 m 1,4,-1
 200 700 l 1,5,-1
 400 700 l 1,6,-1
 400 600 l 1,7,-1
 500 600 l 1,8,-1
 500 500 l 1,9,-1
 300 500 l 1,10,-1
 300 600 l 1,11,-1
 200 600 l 1,4,-1
500 600 m 1,12,-1
 500 700 l 1,13,-1
 600 700 l 1,14,-1
 600 600 l 1,15,-1
 500 600 l 1,12,-1
EndSplineSet
EndChar

StartChar: uni007F
Encoding: 127 127 98
Width: 700
GlyphClass: 1
Flags: W
LayerCount: 2
Fore
SplineSet
0 -300 m 1,0,-1
 0 900 l 1,1,-1
 700 900 l 1,2,-1
 700 -300 l 1,3,-1
 0 -300 l 1,0,-1
400 200 m 1,4,-1
 500 200 l 1,5,-1
 500 100 l 1,6,-1
 400 100 l 1,7,-1
 400 200 l 1,4,-1
400 100 m 1,8,-1
 400 0 l 1,9,-1
 300 0 l 1,10,-1
 300 100 l 1,11,-1
 400 100 l 1,8,-1
400 0 m 1,12,-1
 500 0 l 1,13,-1
 500 -100 l 1,14,-1
 400 -100 l 1,15,-1
 400 0 l 1,12,-1
400 -100 m 1,16,-1
 400 -200 l 1,17,-1
 500 -200 l 1,18,-1
 500 -100 l 1,19,-1
 600 -100 l 1,20,-1
 600 0 l 1,21,-1
 500 0 l 1,22,-1
 500 100 l 1,23,-1
 600 100 l 1,24,-1
 600 200 l 1,25,-1
 500 200 l 1,26,-1
 500 300 l 1,27,-1
 600 300 l 1,28,-1
 600 400 l 1,29,-1
 500 400 l 1,30,-1
 500 500 l 1,31,-1
 600 500 l 1,32,-1
 600 600 l 1,33,-1
 500 600 l 1,34,-1
 500 700 l 1,35,-1
 600 700 l 1,36,-1
 600 800 l 1,37,-1
 500 800 l 1,38,-1
 500 700 l 1,39,-1
 400 700 l 1,40,-1
 400 800 l 1,41,-1
 300 800 l 1,42,-1
 300 700 l 1,43,-1
 200 700 l 1,44,-1
 200 800 l 1,45,-1
 100 800 l 1,46,-1
 100 700 l 1,47,-1
 200 700 l 1,48,-1
 200 600 l 1,49,-1
 100 600 l 1,50,-1
 100 500 l 1,51,-1
 200 500 l 1,52,-1
 200 400 l 1,53,-1
 100 400 l 1,54,-1
 100 300 l 1,55,-1
 200 300 l 1,56,-1
 200 200 l 1,57,-1
 100 200 l 1,58,-1
 100 100 l 1,59,-1
 200 100 l 1,60,-1
 200 0 l 1,61,-1
 100 0 l 1,62,-1
 100 -100 l 1,63,-1
 200 -100 l 1,64,-1
 200 -200 l 1,65,-1
 300 -200 l 1,66,-1
 300 -100 l 1,67,-1
 400 -100 l 1,16,-1
400 500 m 1,68,-1
 400 400 l 1,69,-1
 300 400 l 1,70,-1
 300 500 l 1,71,-1
 400 500 l 1,68,-1
400 400 m 1,72,-1
 500 400 l 1,73,-1
 500 300 l 1,74,-1
 400 300 l 1,75,-1
 400 400 l 1,72,-1
400 300 m 1,76,-1
 400 200 l 1,77,-1
 300 200 l 1,78,-1
 300 300 l 1,79,-1
 400 300 l 1,76,-1
400 700 m 1,80,-1
 400 600 l 1,81,-1
 300 600 l 1,82,-1
 300 700 l 1,83,-1
 400 700 l 1,80,-1
400 600 m 1,84,-1
 500 600 l 1,85,-1
 500 500 l 1,86,-1
 400 500 l 1,87,-1
 400 600 l 1,84,-1
300 200 m 1,88,-1
 300 100 l 1,89,-1
 200 100 l 1,90,-1
 200 200 l 1,91,-1
 300 200 l 1,88,-1
300 0 m 1,92,-1
 300 -100 l 1,93,-1
 200 -100 l 1,94,-1
 200 0 l 1,95,-1
 300 0 l 1,92,-1
300 500 m 1,96,-1
 200 500 l 1,97,-1
 200 600 l 1,98,-1
 300 600 l 1,99,-1
 300 500 l 1,96,-1
300 400 m 1,100,-1
 300 300 l 1,101,-1
 200 300 l 1,102,-1
 200 400 l 1,103,-1
 300 400 l 1,100,-1
EndSplineSet
EndChar

StartChar: uniE000
Encoding: 57344 57344 99
Width: 1400
GlyphClass: 1
Flags: W
LayerCount: 2
Fore
SplineSet
600 400 m 1,0,-1
 600 800 l 1,1,-1
 200 800 l 1,2,-1
 200 900 l 1,3,-1
 700 900 l 1,4,-1
 700 400 l 1,5,-1
 600 400 l 1,0,-1
EndSplineSet
EndChar

StartChar: uniE001
Encoding: 57345 57345 100
Width: 1400
GlyphClass: 1
Flags: W
LayerCount: 2
Fore
SplineSet
400 400 m 1,0,-1
 300 400 l 1,1,-1
 300 800 l 1,2,-1
 100 800 l 1,3,-1
 100 900 l 1,4,-1
 700 900 l 1,5,-1
 700 400 l 1,6,-1
 600 400 l 1,7,-1
 600 800 l 1,8,-1
 400 800 l 1,9,-1
 400 400 l 1,0,-1
EndSplineSet
EndChar

StartChar: uniE002
Encoding: 57346 57346 101
Width: 1400
GlyphClass: 1
Flags: W
LayerCount: 2
Fore
SplineSet
200 400 m 1,0,-1
 200 900 l 1,1,-1
 300 900 l 1,2,-1
 300 500 l 1,3,-1
 700 500 l 1,4,-1
 700 400 l 1,5,-1
 200 400 l 1,0,-1
EndSplineSet
EndChar

StartChar: uniE003
Encoding: 57347 57347 102
Width: 1400
GlyphClass: 1
Flags: W
LayerCount: 2
Fore
SplineSet
200 400 m 1,0,-1
 200 900 l 1,1,-1
 700 900 l 1,2,-1
 700 800 l 1,3,-1
 300 800 l 1,4,-1
 300 500 l 1,5,-1
 700 500 l 1,6,-1
 700 400 l 1,7,-1
 200 400 l 1,0,-1
EndSplineSet
EndChar

StartChar: uniE004
Encoding: 57348 57348 103
Width: 1400
GlyphClass: 1
Flags: W
LayerCount: 2
Fore
SplineSet
800 500 m 1,0,-1
 800 400 l 1,1,-1
 500 400 l 1,2,-1
 500 900 l 1,3,-1
 800 900 l 1,4,-1
 800 800 l 1,5,-1
 600 800 l 1,6,-1
 600 500 l 1,7,-1
 800 500 l 1,0,-1
100 400 m 1,8,-1
 100 900 l 1,9,-1
 400 900 l 1,10,-1
 400 800 l 1,11,-1
 200 800 l 1,12,-1
 200 500 l 1,13,-1
 400 500 l 1,14,-1
 400 400 l 1,15,-1
 100 400 l 1,8,-1
EndSplineSet
EndChar

StartChar: uniE005
Encoding: 57349 57349 104
Width: 1400
GlyphClass: 1
Flags: W
LayerCount: 2
Fore
SplineSet
200 400 m 1,0,-1
 200 700 l 1,1,-1
 600 700 l 1,2,-1
 600 800 l 1,3,-1
 200 800 l 1,4,-1
 200 900 l 1,5,-1
 700 900 l 1,6,-1
 700 600 l 1,7,-1
 300 600 l 1,8,-1
 300 500 l 1,9,-1
 700 500 l 1,10,-1
 700 400 l 1,11,-1
 200 400 l 1,0,-1
EndSplineSet
EndChar

StartChar: uniE006
Encoding: 57350 57350 105
Width: 1400
GlyphClass: 1
Flags: W
LayerCount: 2
Fore
SplineSet
200 400 m 1,0,-1
 200 900 l 1,1,-1
 700 900 l 1,2,-1
 700 400 l 1,3,-1
 200 400 l 1,0,-1
600 500 m 1,4,-1
 600 800 l 1,5,-1
 300 800 l 1,6,-1
 300 500 l 1,7,-1
 600 500 l 1,4,-1
EndSplineSet
EndChar

StartChar: uniE007
Encoding: 57351 57351 106
Width: 1400
GlyphClass: 1
Flags: W
LayerCount: 2
Fore
SplineSet
200 400 m 1,0,-1
 200 900 l 1,1,-1
 300 900 l 1,2,-1
 300 700 l 1,3,-1
 600 700 l 1,4,-1
 600 900 l 1,5,-1
 700 900 l 1,6,-1
 700 400 l 1,7,-1
 200 400 l 1,0,-1
600 500 m 1,8,-1
 600 600 l 1,9,-1
 300 600 l 1,10,-1
 300 500 l 1,11,-1
 600 500 l 1,8,-1
EndSplineSet
EndChar

StartChar: uniE008
Encoding: 57352 57352 107
Width: 1400
GlyphClass: 1
Flags: W
LayerCount: 2
Fore
SplineSet
800 400 m 1,0,-1
 500 400 l 1,1,-1
 500 900 l 1,2,-1
 600 900 l 1,3,-1
 600 700 l 1,4,-1
 700 700 l 1,5,-1
 700 900 l 1,6,-1
 800 900 l 1,7,-1
 800 400 l 1,0,-1
100 400 m 1,8,-1
 100 900 l 1,9,-1
 200 900 l 1,10,-1
 200 700 l 1,11,-1
 300 700 l 1,12,-1
 300 900 l 1,13,-1
 400 900 l 1,14,-1
 400 400 l 1,15,-1
 100 400 l 1,8,-1
200 500 m 1,16,-1
 300 500 l 1,17,-1
 300 600 l 1,18,-1
 200 600 l 1,19,-1
 200 500 l 1,16,-1
600 500 m 1,20,-1
 700 500 l 1,21,-1
 700 600 l 1,22,-1
 600 600 l 1,23,-1
 600 500 l 1,20,-1
EndSplineSet
EndChar

StartChar: uniE009
Encoding: 57353 57353 108
Width: 1400
GlyphClass: 1
Flags: W
LayerCount: 2
Fore
SplineSet
200 400 m 1,0,-1
 200 500 l 1,1,-1
 300 500 l 1,2,-1
 300 400 l 1,3,-1
 200 400 l 1,0,-1
300 500 m 1,4,-1
 300 600 l 1,5,-1
 400 600 l 1,6,-1
 400 500 l 1,7,-1
 300 500 l 1,4,-1
400 600 m 1,8,-1
 400 900 l 1,9,-1
 500 900 l 1,10,-1
 500 600 l 1,11,-1
 400 600 l 1,8,-1
500 500 m 1,12,-1
 500 600 l 1,13,-1
 600 600 l 1,14,-1
 600 500 l 1,15,-1
 500 500 l 1,12,-1
600 500 m 1,16,-1
 700 500 l 1,17,-1
 700 400 l 1,18,-1
 600 400 l 1,19,-1
 600 500 l 1,16,-1
EndSplineSet
EndChar

StartChar: uniE00A
Encoding: 57354 57354 109
Width: 1400
GlyphClass: 1
Flags: W
LayerCount: 2
Fore
SplineSet
800 500 m 1,0,-1
 800 400 l 1,1,-1
 700 400 l 1,2,-1
 700 500 l 1,3,-1
 800 500 l 1,0,-1
100 400 m 1,4,-1
 100 500 l 1,5,-1
 200 500 l 1,6,-1
 200 400 l 1,7,-1
 100 400 l 1,4,-1
200 500 m 1,8,-1
 200 600 l 1,9,-1
 300 600 l 1,10,-1
 300 500 l 1,11,-1
 200 500 l 1,8,-1
300 600 m 1,12,-1
 300 900 l 1,13,-1
 400 900 l 1,14,-1
 400 600 l 1,15,-1
 300 600 l 1,12,-1
400 400 m 1,16,-1
 400 600 l 1,17,-1
 500 600 l 1,18,-1
 500 400 l 1,19,-1
 400 400 l 1,16,-1
500 600 m 1,20,-1
 500 900 l 1,21,-1
 600 900 l 1,22,-1
 600 600 l 1,23,-1
 500 600 l 1,20,-1
600 500 m 1,24,-1
 600 600 l 1,25,-1
 700 600 l 1,26,-1
 700 500 l 1,27,-1
 600 500 l 1,24,-1
EndSplineSet
EndChar

StartChar: uniE00B
Encoding: 57355 57355 110
Width: 1400
GlyphClass: 1
Flags: W
LayerCount: 2
Fore
SplineSet
200 500 m 1,0,-1
 200 800 l 1,1,-1
 300 800 l 1,2,-1
 300 500 l 1,3,-1
 200 500 l 1,0,-1
600 500 m 1,4,-1
 600 400 l 1,5,-1
 300 400 l 1,6,-1
 300 500 l 1,7,-1
 600 500 l 1,4,-1
600 900 m 1,8,-1
 600 800 l 1,9,-1
 300 800 l 1,10,-1
 300 900 l 1,11,-1
 600 900 l 1,8,-1
600 800 m 1,12,-1
 700 800 l 1,13,-1
 700 500 l 1,14,-1
 600 500 l 1,15,-1
 600 800 l 1,12,-1
EndSplineSet
EndChar

StartChar: uniE00C
Encoding: 57356 57356 111
Width: 1400
GlyphClass: 1
Flags: W
LayerCount: 2
Fore
SplineSet
200 400 m 1,0,-1
 200 500 l 1,1,-1
 300 500 l 1,2,-1
 300 400 l 1,3,-1
 200 400 l 1,0,-1
200 800 m 1,4,-1
 200 900 l 1,5,-1
 700 900 l 1,6,-1
 700 800 l 1,7,-1
 500 800 l 1,8,-1
 500 600 l 1,9,-1
 400 600 l 1,10,-1
 400 800 l 1,11,-1
 200 800 l 1,4,-1
300 500 m 1,12,-1
 300 600 l 1,13,-1
 400 600 l 1,14,-1
 400 500 l 1,15,-1
 300 500 l 1,12,-1
500 500 m 1,16,-1
 500 600 l 1,17,-1
 600 600 l 1,18,-1
 600 500 l 1,19,-1
 500 500 l 1,16,-1
600 500 m 1,20,-1
 700 500 l 1,21,-1
 700 400 l 1,22,-1
 600 400 l 1,23,-1
 600 500 l 1,20,-1
EndSplineSet
EndChar

StartChar: uniE00D
Encoding: 57357 57357 112
Width: 1400
GlyphClass: 1
Flags: W
LayerCount: 2
Fore
SplineSet
200 500 m 1,0,-1
 200 400 l 1,1,-1
 100 400 l 1,2,-1
 100 500 l 1,3,-1
 200 500 l 1,0,-1
200 600 m 1,4,-1
 300 600 l 1,5,-1
 300 500 l 1,6,-1
 200 500 l 1,7,-1
 200 600 l 1,4,-1
400 400 m 1,8,-1
 400 600 l 1,9,-1
 500 600 l 1,10,-1
 500 400 l 1,11,-1
 400 400 l 1,8,-1
400 600 m 1,12,-1
 300 600 l 1,13,-1
 300 800 l 1,14,-1
 100 800 l 1,15,-1
 100 900 l 1,16,-1
 800 900 l 1,17,-1
 800 800 l 1,18,-1
 600 800 l 1,19,-1
 600 600 l 1,20,-1
 500 600 l 1,21,-1
 500 800 l 1,22,-1
 400 800 l 1,23,-1
 400 600 l 1,12,-1
600 500 m 1,24,-1
 600 600 l 1,25,-1
 700 600 l 1,26,-1
 700 500 l 1,27,-1
 600 500 l 1,24,-1
800 500 m 1,28,-1
 800 400 l 1,29,-1
 700 400 l 1,30,-1
 700 500 l 1,31,-1
 800 500 l 1,28,-1
EndSplineSet
EndChar

StartChar: uniE00E
Encoding: 57358 57358 113
Width: 1400
GlyphClass: 1
Flags: W
LayerCount: 2
Fore
SplineSet
200 400 m 1,0,-1
 200 500 l 1,1,-1
 300 500 l 1,2,-1
 300 400 l 1,3,-1
 200 400 l 1,0,-1
200 700 m 1,4,-1
 200 800 l 1,5,-1
 400 800 l 1,6,-1
 400 900 l 1,7,-1
 500 900 l 1,8,-1
 500 800 l 1,9,-1
 700 800 l 1,10,-1
 700 700 l 1,11,-1
 500 700 l 1,12,-1
 500 600 l 1,13,-1
 400 600 l 1,14,-1
 400 700 l 1,15,-1
 200 700 l 1,4,-1
300 500 m 1,16,-1
 300 600 l 1,17,-1
 400 600 l 1,18,-1
 400 500 l 1,19,-1
 300 500 l 1,16,-1
500 500 m 1,20,-1
 500 600 l 1,21,-1
 600 600 l 1,22,-1
 600 500 l 1,23,-1
 500 500 l 1,20,-1
600 500 m 1,24,-1
 700 500 l 1,25,-1
 700 400 l 1,26,-1
 600 400 l 1,27,-1
 600 500 l 1,24,-1
EndSplineSet
EndChar

StartChar: uniE00F
Encoding: 57359 57359 114
Width: 1400
GlyphClass: 1
Flags: W
LayerCount: 2
Fore
SplineSet
600 400 m 1,0,-1
 600 600 l 1,1,-1
 200 600 l 1,2,-1
 200 700 l 1,3,-1
 600 700 l 1,4,-1
 600 800 l 1,5,-1
 200 800 l 1,6,-1
 200 900 l 1,7,-1
 700 900 l 1,8,-1
 700 400 l 1,9,-1
 600 400 l 1,0,-1
EndSplineSet
EndChar

StartChar: uniE010
Encoding: 57360 57360 115
Width: 1400
GlyphClass: 1
Flags: W
LayerCount: 2
Fore
SplineSet
200 400 m 1,0,-1
 200 900 l 1,1,-1
 700 900 l 1,2,-1
 700 800 l 1,3,-1
 300 800 l 1,4,-1
 300 700 l 1,5,-1
 700 700 l 1,6,-1
 700 600 l 1,7,-1
 300 600 l 1,8,-1
 300 500 l 1,9,-1
 700 500 l 1,10,-1
 700 400 l 1,11,-1
 200 400 l 1,0,-1
EndSplineSet
EndChar

StartChar: uniE011
Encoding: 57361 57361 116
Width: 1400
GlyphClass: 1
Flags: W
LayerCount: 2
Fore
SplineSet
200 400 m 1,0,-1
 200 500 l 1,1,-1
 300 500 l 1,2,-1
 300 800 l 1,3,-1
 200 800 l 1,4,-1
 200 900 l 1,5,-1
 700 900 l 1,6,-1
 700 800 l 1,7,-1
 600 800 l 1,8,-1
 600 500 l 1,9,-1
 700 500 l 1,10,-1
 700 400 l 1,11,-1
 200 400 l 1,0,-1
400 500 m 1,12,-1
 500 500 l 1,13,-1
 500 800 l 1,14,-1
 400 800 l 1,15,-1
 400 500 l 1,12,-1
EndSplineSet
EndChar

StartChar: uniE012
Encoding: 57362 57362 117
Width: 1400
GlyphClass: 1
Flags: W
LayerCount: 2
Fore
SplineSet
800 700 m 1,0,-1
 700 700 l 1,1,-1
 700 500 l 1,2,-1
 600 500 l 1,3,-1
 600 700 l 1,4,-1
 300 700 l 1,5,-1
 300 500 l 1,6,-1
 200 500 l 1,7,-1
 200 700 l 1,8,-1
 100 700 l 1,9,-1
 100 800 l 1,10,-1
 400 800 l 1,11,-1
 400 900 l 1,12,-1
 500 900 l 1,13,-1
 500 800 l 1,14,-1
 800 800 l 1,15,-1
 800 700 l 1,0,-1
300 500 m 1,16,-1
 600 500 l 1,17,-1
 600 400 l 1,18,-1
 300 400 l 1,19,-1
 300 500 l 1,16,-1
EndSplineSet
EndChar

StartChar: uniE013
Encoding: 57363 57363 118
Width: 1400
GlyphClass: 1
Flags: W
LayerCount: 2
Fore
SplineSet
900 500 m 1,0,-1
 900 800 l 1,1,-1
 300 800 l 1,2,-1
 300 900 l 1,3,-1
 1000 900 l 1,4,-1
 1000 500 l 1,5,-1
 900 500 l 1,0,-1
EndSplineSet
EndChar

StartChar: uniE014
Encoding: 57364 57364 119
Width: 1400
GlyphClass: 1
Flags: W
LayerCount: 2
Fore
SplineSet
900 500 m 1,0,-1
 900 800 l 1,1,-1
 700 800 l 1,2,-1
 700 900 l 1,3,-1
 1000 900 l 1,4,-1
 1000 500 l 1,5,-1
 900 500 l 1,0,-1
500 500 m 1,6,-1
 500 800 l 1,7,-1
 300 800 l 1,8,-1
 300 900 l 1,9,-1
 600 900 l 1,10,-1
 600 500 l 1,11,-1
 500 500 l 1,6,-1
EndSplineSet
EndChar

StartChar: uniE015
Encoding: 57365 57365 120
Width: 1400
GlyphClass: 1
Flags: W
LayerCount: 2
Fore
SplineSet
400 600 m 1,0,-1
 1000 600 l 1,1,-1
 1000 500 l 1,2,-1
 300 500 l 1,3,-1
 300 900 l 1,4,-1
 400 900 l 1,5,-1
 400 600 l 1,0,-1
EndSplineSet
EndChar

StartChar: uniE016
Encoding: 57366 57366 121
Width: 1400
GlyphClass: 1
Flags: W
LayerCount: 2
Fore
SplineSet
400 600 m 1,0,-1
 1000 600 l 1,1,-1
 1000 500 l 1,2,-1
 300 500 l 1,3,-1
 300 900 l 1,4,-1
 1000 900 l 1,5,-1
 1000 800 l 1,6,-1
 400 800 l 1,7,-1
 400 600 l 1,0,-1
EndSplineSet
EndChar

StartChar: uniE017
Encoding: 57367 57367 122
Width: 1400
GlyphClass: 1
Flags: W
LayerCount: 2
Fore
SplineSet
800 600 m 1,0,-1
 1000 600 l 1,1,-1
 1000 500 l 1,2,-1
 700 500 l 1,3,-1
 700 900 l 1,4,-1
 1000 900 l 1,5,-1
 1000 800 l 1,6,-1
 800 800 l 1,7,-1
 800 600 l 1,0,-1
300 500 m 1,8,-1
 300 900 l 1,9,-1
 600 900 l 1,10,-1
 600 800 l 1,11,-1
 400 800 l 1,12,-1
 400 600 l 1,13,-1
 600 600 l 1,14,-1
 600 500 l 1,15,-1
 300 500 l 1,8,-1
EndSplineSet
EndChar

StartChar: uniE018
Encoding: 57368 57368 123
Width: 1400
GlyphClass: 1
Flags: W
LayerCount: 2
Fore
SplineSet
1000 500 m 1,0,-1
 300 500 l 1,1,-1
 300 700 l 1,2,-1
 700 700 l 1,3,-1
 700 600 l 1,4,-1
 1000 600 l 1,5,-1
 1000 500 l 1,0,-1
1000 700 m 1,6,-1
 700 700 l 1,7,-1
 700 800 l 1,8,-1
 300 800 l 1,9,-1
 300 900 l 1,10,-1
 1000 900 l 1,11,-1
 1000 700 l 1,6,-1
EndSplineSet
EndChar

StartChar: uniE019
Encoding: 57369 57369 124
Width: 1400
GlyphClass: 1
Flags: W
LayerCount: 2
Fore
SplineSet
400 600 m 1,0,-1
 900 600 l 1,1,-1
 900 800 l 1,2,-1
 400 800 l 1,3,-1
 400 600 l 1,0,-1
1000 500 m 1,4,-1
 300 500 l 1,5,-1
 300 900 l 1,6,-1
 1000 900 l 1,7,-1
 1000 500 l 1,4,-1
EndSplineSet
EndChar

StartChar: uniE01A
Encoding: 57370 57370 125
Width: 1400
GlyphClass: 1
Flags: W
LayerCount: 2
Fore
SplineSet
400 700 m 1,0,-1
 400 600 l 1,1,-1
 900 600 l 1,2,-1
 900 700 l 1,3,-1
 400 700 l 1,0,-1
400 900 m 1,4,-1
 400 800 l 1,5,-1
 900 800 l 1,6,-1
 900 900 l 1,7,-1
 1000 900 l 1,8,-1
 1000 500 l 1,9,-1
 300 500 l 1,10,-1
 300 900 l 1,11,-1
 400 900 l 1,4,-1
EndSplineSet
EndChar

StartChar: uniE01B
Encoding: 57371 57371 126
Width: 1400
GlyphClass: 1
Flags: W
LayerCount: 2
Fore
SplineSet
800 700 m 1,0,-1
 800 600 l 1,1,-1
 900 600 l 1,2,-1
 900 700 l 1,3,-1
 800 700 l 1,0,-1
800 900 m 1,4,-1
 800 800 l 1,5,-1
 900 800 l 1,6,-1
 900 900 l 1,7,-1
 1000 900 l 1,8,-1
 1000 500 l 1,9,-1
 700 500 l 1,10,-1
 700 900 l 1,11,-1
 800 900 l 1,4,-1
300 500 m 1,12,-1
 300 900 l 1,13,-1
 400 900 l 1,14,-1
 400 800 l 1,15,-1
 500 800 l 1,16,-1
 500 900 l 1,17,-1
 600 900 l 1,18,-1
 600 500 l 1,19,-1
 300 500 l 1,12,-1
400 700 m 1,20,-1
 400 600 l 1,21,-1
 500 600 l 1,22,-1
 500 700 l 1,23,-1
 400 700 l 1,20,-1
EndSplineSet
EndChar

StartChar: uniE01C
Encoding: 57372 57372 127
Width: 1400
GlyphClass: 1
Flags: W
LayerCount: 2
Fore
SplineSet
800 700 m 1,0,-1
 900 700 l 1,1,-1
 900 600 l 1,2,-1
 800 600 l 1,3,-1
 800 700 l 1,0,-1
800 800 m 1,4,-1
 800 700 l 1,5,-1
 700 700 l 1,6,-1
 700 800 l 1,7,-1
 800 800 l 1,4,-1
900 500 m 1,8,-1
 900 600 l 1,9,-1
 1000 600 l 1,10,-1
 1000 500 l 1,11,-1
 900 500 l 1,8,-1
300 500 m 1,12,-1
 300 600 l 1,13,-1
 400 600 l 1,14,-1
 400 500 l 1,15,-1
 300 500 l 1,12,-1
400 600 m 1,16,-1
 400 700 l 1,17,-1
 500 700 l 1,18,-1
 500 600 l 1,19,-1
 400 600 l 1,16,-1
500 700 m 1,20,-1
 500 800 l 1,21,-1
 600 800 l 1,22,-1
 600 700 l 1,23,-1
 500 700 l 1,20,-1
600 800 m 1,24,-1
 600 900 l 1,25,-1
 700 900 l 1,26,-1
 700 800 l 1,27,-1
 600 800 l 1,24,-1
EndSplineSet
EndChar

StartChar: uniE01D
Encoding: 57373 57373 128
Width: 1400
GlyphClass: 1
Flags: W
LayerCount: 2
Fore
SplineSet
900 700 m 1,0,-1
 800 700 l 1,1,-1
 800 900 l 1,2,-1
 900 900 l 1,3,-1
 900 700 l 1,0,-1
900 600 m 1,4,-1
 900 700 l 1,5,-1
 1000 700 l 1,6,-1
 1000 600 l 1,7,-1
 900 600 l 1,4,-1
200 500 m 1,8,-1
 200 600 l 1,9,-1
 300 600 l 1,10,-1
 300 500 l 1,11,-1
 200 500 l 1,8,-1
1100 500 m 1,12,-1
 1000 500 l 1,13,-1
 1000 600 l 1,14,-1
 1100 600 l 1,15,-1
 1100 500 l 1,12,-1
400 700 m 1,16,-1
 400 600 l 1,17,-1
 300 600 l 1,18,-1
 300 700 l 1,19,-1
 400 700 l 1,16,-1
400 900 m 1,20,-1
 500 900 l 1,21,-1
 500 700 l 1,22,-1
 400 700 l 1,23,-1
 400 900 l 1,20,-1
600 500 m 1,24,-1
 600 600 l 1,25,-1
 700 600 l 1,26,-1
 700 500 l 1,27,-1
 600 500 l 1,24,-1
600 700 m 1,28,-1
 600 600 l 1,29,-1
 500 600 l 1,30,-1
 500 700 l 1,31,-1
 600 700 l 1,28,-1
800 700 m 1,32,-1
 800 600 l 1,33,-1
 700 600 l 1,34,-1
 700 700 l 1,35,-1
 800 700 l 1,32,-1
EndSplineSet
EndChar

StartChar: uniE01E
Encoding: 57374 57374 129
Width: 1400
GlyphClass: 1
Flags: W
LayerCount: 2
Fore
SplineSet
400 500 m 1,0,-1
 400 600 l 1,1,-1
 900 600 l 1,2,-1
 900 500 l 1,3,-1
 400 500 l 1,0,-1
400 600 m 1,4,-1
 300 600 l 1,5,-1
 300 800 l 1,6,-1
 400 800 l 1,7,-1
 400 600 l 1,4,-1
400 800 m 1,8,-1
 400 900 l 1,9,-1
 900 900 l 1,10,-1
 900 800 l 1,11,-1
 400 800 l 1,8,-1
900 600 m 1,12,-1
 900 800 l 1,13,-1
 1000 800 l 1,14,-1
 1000 600 l 1,15,-1
 900 600 l 1,12,-1
EndSplineSet
EndChar

StartChar: uniE01F
Encoding: 57375 57375 130
Width: 1400
GlyphClass: 1
Flags: W
LayerCount: 2
Fore
SplineSet
800 700 m 1,0,-1
 900 700 l 1,1,-1
 900 600 l 1,2,-1
 800 600 l 1,3,-1
 800 700 l 1,0,-1
800 800 m 1,4,-1
 800 700 l 1,5,-1
 700 700 l 1,6,-1
 700 800 l 1,7,-1
 600 800 l 1,8,-1
 600 700 l 1,9,-1
 500 700 l 1,10,-1
 500 800 l 1,11,-1
 300 800 l 1,12,-1
 300 900 l 1,13,-1
 1000 900 l 1,14,-1
 1000 800 l 1,15,-1
 800 800 l 1,4,-1
900 500 m 1,16,-1
 900 600 l 1,17,-1
 1000 600 l 1,18,-1
 1000 500 l 1,19,-1
 900 500 l 1,16,-1
300 500 m 1,20,-1
 300 600 l 1,21,-1
 400 600 l 1,22,-1
 400 500 l 1,23,-1
 300 500 l 1,20,-1
400 600 m 1,24,-1
 400 700 l 1,25,-1
 500 700 l 1,26,-1
 500 600 l 1,27,-1
 400 600 l 1,24,-1
EndSplineSet
EndChar

StartChar: uniE020
Encoding: 57376 57376 131
Width: 1400
GlyphClass: 1
Flags: W
LayerCount: 2
Fore
SplineSet
900 700 m 1,0,-1
 800 700 l 1,1,-1
 800 800 l 1,2,-1
 500 800 l 1,3,-1
 500 700 l 1,4,-1
 400 700 l 1,5,-1
 400 800 l 1,6,-1
 200 800 l 1,7,-1
 200 900 l 1,8,-1
 1100 900 l 1,9,-1
 1100 800 l 1,10,-1
 900 800 l 1,11,-1
 900 700 l 1,0,-1
900 600 m 1,12,-1
 900 700 l 1,13,-1
 1000 700 l 1,14,-1
 1000 600 l 1,15,-1
 900 600 l 1,12,-1
200 500 m 1,16,-1
 200 600 l 1,17,-1
 300 600 l 1,18,-1
 300 500 l 1,19,-1
 200 500 l 1,16,-1
1100 500 m 1,20,-1
 1000 500 l 1,21,-1
 1000 600 l 1,22,-1
 1100 600 l 1,23,-1
 1100 500 l 1,20,-1
400 700 m 1,24,-1
 400 600 l 1,25,-1
 300 600 l 1,26,-1
 300 700 l 1,27,-1
 400 700 l 1,24,-1
600 500 m 1,28,-1
 600 600 l 1,29,-1
 700 600 l 1,30,-1
 700 500 l 1,31,-1
 600 500 l 1,28,-1
600 700 m 1,32,-1
 600 600 l 1,33,-1
 500 600 l 1,34,-1
 500 700 l 1,35,-1
 600 700 l 1,32,-1
800 700 m 1,36,-1
 800 600 l 1,37,-1
 700 600 l 1,38,-1
 700 700 l 1,39,-1
 800 700 l 1,36,-1
EndSplineSet
EndChar

StartChar: uniE021
Encoding: 57377 57377 132
Width: 1400
GlyphClass: 1
Flags: W
LayerCount: 2
Fore
SplineSet
800 600 m 1,0,-1
 800 700 l 1,1,-1
 500 700 l 1,2,-1
 500 600 l 1,3,-1
 400 600 l 1,4,-1
 400 700 l 1,5,-1
 300 700 l 1,6,-1
 300 800 l 1,7,-1
 600 800 l 1,8,-1
 600 900 l 1,9,-1
 700 900 l 1,10,-1
 700 800 l 1,11,-1
 1000 800 l 1,12,-1
 1000 700 l 1,13,-1
 900 700 l 1,14,-1
 900 600 l 1,15,-1
 800 600 l 1,0,-1
900 500 m 1,16,-1
 900 600 l 1,17,-1
 1000 600 l 1,18,-1
 1000 500 l 1,19,-1
 900 500 l 1,16,-1
300 500 m 1,20,-1
 300 600 l 1,21,-1
 400 600 l 1,22,-1
 400 500 l 1,23,-1
 300 500 l 1,20,-1
EndSplineSet
EndChar

StartChar: uniE022
Encoding: 57378 57378 133
Width: 1400
GlyphClass: 1
Flags: W
LayerCount: 2
Fore
SplineSet
900 500 m 1,0,-1
 900 600 l 1,1,-1
 300 600 l 1,2,-1
 300 700 l 1,3,-1
 900 700 l 1,4,-1
 900 800 l 1,5,-1
 300 800 l 1,6,-1
 300 900 l 1,7,-1
 1000 900 l 1,8,-1
 1000 500 l 1,9,-1
 900 500 l 1,0,-1
EndSplineSet
EndChar

StartChar: uniE023
Encoding: 57379 57379 134
Width: 1400
GlyphClass: 1
Flags: W
LayerCount: 2
Fore
SplineSet
400 700 m 1,0,-1
 400 600 l 1,1,-1
 1000 600 l 1,2,-1
 1000 500 l 1,3,-1
 300 500 l 1,4,-1
 300 900 l 1,5,-1
 1000 900 l 1,6,-1
 1000 700 l 1,7,-1
 400 700 l 1,0,-1
EndSplineSet
EndChar

StartChar: uniE024
Encoding: 57380 57380 135
Width: 1400
GlyphClass: 1
Flags: W
LayerCount: 2
Fore
SplineSet
800 600 m 1,0,-1
 1000 600 l 1,1,-1
 1000 500 l 1,2,-1
 300 500 l 1,3,-1
 300 600 l 1,4,-1
 500 600 l 1,5,-1
 500 800 l 1,6,-1
 300 800 l 1,7,-1
 300 900 l 1,8,-1
 1000 900 l 1,9,-1
 1000 800 l 1,10,-1
 800 800 l 1,11,-1
 800 600 l 1,0,-1
600 600 m 1,12,-1
 700 600 l 1,13,-1
 700 800 l 1,14,-1
 600 800 l 1,15,-1
 600 600 l 1,12,-1
EndSplineSet
EndChar

StartChar: uniE025
Encoding: 57381 57381 136
Width: 1400
GlyphClass: 1
Flags: W
LayerCount: 2
Fore
SplineSet
800 500 m 1,0,-1
 500 500 l 1,1,-1
 500 600 l 1,2,-1
 800 600 l 1,3,-1
 800 500 l 1,0,-1
800 600 m 1,4,-1
 800 700 l 1,5,-1
 500 700 l 1,6,-1
 500 600 l 1,7,-1
 400 600 l 1,8,-1
 400 700 l 1,9,-1
 300 700 l 1,10,-1
 300 800 l 1,11,-1
 600 800 l 1,12,-1
 600 900 l 1,13,-1
 700 900 l 1,14,-1
 700 800 l 1,15,-1
 1000 800 l 1,16,-1
 1000 700 l 1,17,-1
 900 700 l 1,18,-1
 900 600 l 1,19,-1
 800 600 l 1,4,-1
EndSplineSet
EndChar

StartChar: uniE026
Encoding: 57382 57382 137
Width: 1400
GlyphClass: 1
Flags: W
LayerCount: 2
Fore
SplineSet
600 500 m 1,0,-1
 600 800 l 1,1,-1
 200 800 l 1,2,-1
 200 900 l 1,3,-1
 700 900 l 1,4,-1
 700 500 l 1,5,-1
 600 500 l 1,0,-1
EndSplineSet
EndChar

StartChar: uniE027
Encoding: 57383 57383 138
Width: 1400
GlyphClass: 1
Flags: W
LayerCount: 2
Fore
SplineSet
400 500 m 1,0,-1
 300 500 l 1,1,-1
 300 800 l 1,2,-1
 100 800 l 1,3,-1
 100 900 l 1,4,-1
 400 900 l 1,5,-1
 400 500 l 1,0,-1
800 500 m 1,6,-1
 700 500 l 1,7,-1
 700 800 l 1,8,-1
 500 800 l 1,9,-1
 500 900 l 1,10,-1
 800 900 l 1,11,-1
 800 500 l 1,6,-1
EndSplineSet
EndChar

StartChar: uniE028
Encoding: 57384 57384 139
Width: 1400
GlyphClass: 1
Flags: W
LayerCount: 2
Fore
SplineSet
200 500 m 1,0,-1
 200 900 l 1,1,-1
 300 900 l 1,2,-1
 300 600 l 1,3,-1
 700 600 l 1,4,-1
 700 500 l 1,5,-1
 200 500 l 1,0,-1
EndSplineSet
EndChar

StartChar: uniE029
Encoding: 57385 57385 140
Width: 1400
GlyphClass: 1
Flags: W
LayerCount: 2
Fore
SplineSet
200 500 m 1,0,-1
 200 900 l 1,1,-1
 700 900 l 1,2,-1
 700 800 l 1,3,-1
 300 800 l 1,4,-1
 300 600 l 1,5,-1
 700 600 l 1,6,-1
 700 500 l 1,7,-1
 200 500 l 1,0,-1
EndSplineSet
EndChar

StartChar: uniE02A
Encoding: 57386 57386 141
Width: 1400
GlyphClass: 1
Flags: W
LayerCount: 2
Fore
SplineSet
800 500 m 1,0,-1
 500 500 l 1,1,-1
 500 900 l 1,2,-1
 800 900 l 1,3,-1
 800 800 l 1,4,-1
 600 800 l 1,5,-1
 600 600 l 1,6,-1
 800 600 l 1,7,-1
 800 500 l 1,0,-1
100 500 m 1,8,-1
 100 900 l 1,9,-1
 400 900 l 1,10,-1
 400 800 l 1,11,-1
 200 800 l 1,12,-1
 200 600 l 1,13,-1
 400 600 l 1,14,-1
 400 500 l 1,15,-1
 100 500 l 1,8,-1
EndSplineSet
EndChar

StartChar: uniE02B
Encoding: 57387 57387 142
Width: 1400
GlyphClass: 1
Flags: W
LayerCount: 2
Fore
SplineSet
500 700 m 1,0,-1
 500 600 l 1,1,-1
 700 600 l 1,2,-1
 700 500 l 1,3,-1
 200 500 l 1,4,-1
 200 700 l 1,5,-1
 500 700 l 1,0,-1
500 800 m 1,6,-1
 200 800 l 1,7,-1
 200 900 l 1,8,-1
 700 900 l 1,9,-1
 700 700 l 1,10,-1
 500 700 l 1,11,-1
 500 800 l 1,6,-1
EndSplineSet
EndChar

StartChar: uniE02C
Encoding: 57388 57388 143
Width: 1400
GlyphClass: 1
Flags: W
LayerCount: 2
Fore
SplineSet
200 500 m 1,0,-1
 200 900 l 1,1,-1
 700 900 l 1,2,-1
 700 500 l 1,3,-1
 200 500 l 1,0,-1
600 600 m 1,4,-1
 600 800 l 1,5,-1
 300 800 l 1,6,-1
 300 600 l 1,7,-1
 600 600 l 1,4,-1
EndSplineSet
EndChar

StartChar: uniE02D
Encoding: 57389 57389 144
Width: 1400
GlyphClass: 1
Flags: W
LayerCount: 2
Fore
SplineSet
200 500 m 1,0,-1
 200 900 l 1,1,-1
 300 900 l 1,2,-1
 300 800 l 1,3,-1
 600 800 l 1,4,-1
 600 900 l 1,5,-1
 700 900 l 1,6,-1
 700 500 l 1,7,-1
 200 500 l 1,0,-1
600 600 m 1,8,-1
 600 700 l 1,9,-1
 300 700 l 1,10,-1
 300 600 l 1,11,-1
 600 600 l 1,8,-1
EndSplineSet
EndChar

StartChar: uniE02E
Encoding: 57390 57390 145
Width: 1400
GlyphClass: 1
Flags: W
LayerCount: 2
Fore
SplineSet
800 500 m 1,0,-1
 500 500 l 1,1,-1
 500 900 l 1,2,-1
 600 900 l 1,3,-1
 600 800 l 1,4,-1
 700 800 l 1,5,-1
 700 900 l 1,6,-1
 800 900 l 1,7,-1
 800 500 l 1,0,-1
100 500 m 1,8,-1
 100 900 l 1,9,-1
 200 900 l 1,10,-1
 200 800 l 1,11,-1
 300 800 l 1,12,-1
 300 900 l 1,13,-1
 400 900 l 1,14,-1
 400 500 l 1,15,-1
 100 500 l 1,8,-1
200 700 m 1,16,-1
 200 600 l 1,17,-1
 300 600 l 1,18,-1
 300 700 l 1,19,-1
 200 700 l 1,16,-1
600 700 m 1,20,-1
 600 600 l 1,21,-1
 700 600 l 1,22,-1
 700 700 l 1,23,-1
 600 700 l 1,20,-1
EndSplineSet
EndChar

StartChar: uniE02F
Encoding: 57391 57391 146
Width: 1400
GlyphClass: 1
Flags: W
LayerCount: 2
Fore
SplineSet
200 500 m 1,0,-1
 200 600 l 1,1,-1
 300 600 l 1,2,-1
 300 500 l 1,3,-1
 200 500 l 1,0,-1
300 600 m 1,4,-1
 300 700 l 1,5,-1
 400 700 l 1,6,-1
 400 600 l 1,7,-1
 300 600 l 1,4,-1
400 700 m 1,8,-1
 400 900 l 1,9,-1
 500 900 l 1,10,-1
 500 700 l 1,11,-1
 400 700 l 1,8,-1
500 700 m 1,12,-1
 600 700 l 1,13,-1
 600 600 l 1,14,-1
 500 600 l 1,15,-1
 500 700 l 1,12,-1
600 500 m 1,16,-1
 600 600 l 1,17,-1
 700 600 l 1,18,-1
 700 500 l 1,19,-1
 600 500 l 1,16,-1
EndSplineSet
EndChar

StartChar: uniE030
Encoding: 57392 57392 147
Width: 1400
GlyphClass: 1
Flags: W
LayerCount: 2
Fore
SplineSet
800 500 m 1,0,-1
 700 500 l 1,1,-1
 700 600 l 1,2,-1
 800 600 l 1,3,-1
 800 500 l 1,0,-1
100 500 m 1,4,-1
 100 600 l 1,5,-1
 200 600 l 1,6,-1
 200 500 l 1,7,-1
 100 500 l 1,4,-1
200 600 m 1,8,-1
 200 700 l 1,9,-1
 300 700 l 1,10,-1
 300 600 l 1,11,-1
 200 600 l 1,8,-1
300 700 m 1,12,-1
 300 900 l 1,13,-1
 400 900 l 1,14,-1
 400 700 l 1,15,-1
 300 700 l 1,12,-1
400 500 m 1,16,-1
 400 700 l 1,17,-1
 500 700 l 1,18,-1
 500 500 l 1,19,-1
 400 500 l 1,16,-1
500 700 m 1,20,-1
 500 900 l 1,21,-1
 600 900 l 1,22,-1
 600 700 l 1,23,-1
 500 700 l 1,20,-1
600 700 m 1,24,-1
 700 700 l 1,25,-1
 700 600 l 1,26,-1
 600 600 l 1,27,-1
 600 700 l 1,24,-1
EndSplineSet
EndChar

StartChar: uniE031
Encoding: 57393 57393 148
Width: 1400
GlyphClass: 1
Flags: W
LayerCount: 2
Fore
SplineSet
600 500 m 1,0,-1
 300 500 l 1,1,-1
 300 600 l 1,2,-1
 600 600 l 1,3,-1
 600 500 l 1,0,-1
200 600 m 1,4,-1
 200 800 l 1,5,-1
 300 800 l 1,6,-1
 300 600 l 1,7,-1
 200 600 l 1,4,-1
600 600 m 1,8,-1
 600 800 l 1,9,-1
 700 800 l 1,10,-1
 700 600 l 1,11,-1
 600 600 l 1,8,-1
600 900 m 1,12,-1
 600 800 l 1,13,-1
 300 800 l 1,14,-1
 300 900 l 1,15,-1
 600 900 l 1,12,-1
EndSplineSet
EndChar

StartChar: uniE032
Encoding: 57394 57394 149
Width: 1400
GlyphClass: 1
Flags: W
LayerCount: 2
Fore
SplineSet
200 500 m 1,0,-1
 200 600 l 1,1,-1
 300 600 l 1,2,-1
 300 500 l 1,3,-1
 200 500 l 1,0,-1
200 800 m 1,4,-1
 200 900 l 1,5,-1
 700 900 l 1,6,-1
 700 800 l 1,7,-1
 500 800 l 1,8,-1
 500 700 l 1,9,-1
 400 700 l 1,10,-1
 400 800 l 1,11,-1
 200 800 l 1,4,-1
300 600 m 1,12,-1
 300 700 l 1,13,-1
 400 700 l 1,14,-1
 400 600 l 1,15,-1
 300 600 l 1,12,-1
500 700 m 1,16,-1
 600 700 l 1,17,-1
 600 600 l 1,18,-1
 500 600 l 1,19,-1
 500 700 l 1,16,-1
600 500 m 1,20,-1
 600 600 l 1,21,-1
 700 600 l 1,22,-1
 700 500 l 1,23,-1
 600 500 l 1,20,-1
EndSplineSet
EndChar

StartChar: uniE033
Encoding: 57395 57395 150
Width: 1400
GlyphClass: 1
Flags: W
LayerCount: 2
Fore
SplineSet
200 500 m 1,0,-1
 100 500 l 1,1,-1
 100 600 l 1,2,-1
 200 600 l 1,3,-1
 200 500 l 1,0,-1
200 600 m 1,4,-1
 200 700 l 1,5,-1
 300 700 l 1,6,-1
 300 600 l 1,7,-1
 200 600 l 1,4,-1
400 500 m 1,8,-1
 400 700 l 1,9,-1
 500 700 l 1,10,-1
 500 500 l 1,11,-1
 400 500 l 1,8,-1
400 700 m 1,12,-1
 300 700 l 1,13,-1
 300 800 l 1,14,-1
 100 800 l 1,15,-1
 100 900 l 1,16,-1
 800 900 l 1,17,-1
 800 800 l 1,18,-1
 600 800 l 1,19,-1
 600 700 l 1,20,-1
 500 700 l 1,21,-1
 500 800 l 1,22,-1
 400 800 l 1,23,-1
 400 700 l 1,12,-1
600 700 m 1,24,-1
 700 700 l 1,25,-1
 700 600 l 1,26,-1
 600 600 l 1,27,-1
 600 700 l 1,24,-1
800 500 m 1,28,-1
 700 500 l 1,29,-1
 700 600 l 1,30,-1
 800 600 l 1,31,-1
 800 500 l 1,28,-1
EndSplineSet
EndChar

StartChar: uniE034
Encoding: 57396 57396 151
Width: 1400
GlyphClass: 1
Flags: W
LayerCount: 2
Fore
SplineSet
200 500 m 1,0,-1
 200 600 l 1,1,-1
 300 600 l 1,2,-1
 300 500 l 1,3,-1
 200 500 l 1,0,-1
200 700 m 1,4,-1
 200 800 l 1,5,-1
 400 800 l 1,6,-1
 400 900 l 1,7,-1
 500 900 l 1,8,-1
 500 800 l 1,9,-1
 700 800 l 1,10,-1
 700 700 l 1,11,-1
 600 700 l 1,12,-1
 600 600 l 1,13,-1
 500 600 l 1,14,-1
 500 700 l 1,15,-1
 400 700 l 1,16,-1
 400 600 l 1,17,-1
 300 600 l 1,18,-1
 300 700 l 1,19,-1
 200 700 l 1,4,-1
600 500 m 1,20,-1
 600 600 l 1,21,-1
 700 600 l 1,22,-1
 700 500 l 1,23,-1
 600 500 l 1,20,-1
EndSplineSet
EndChar

StartChar: uniE035
Encoding: 57397 57397 152
Width: 1400
GlyphClass: 1
Flags: W
LayerCount: 2
Fore
SplineSet
600 500 m 1,0,-1
 600 600 l 1,1,-1
 200 600 l 1,2,-1
 200 700 l 1,3,-1
 600 700 l 1,4,-1
 600 800 l 1,5,-1
 200 800 l 1,6,-1
 200 900 l 1,7,-1
 700 900 l 1,8,-1
 700 500 l 1,9,-1
 600 500 l 1,0,-1
EndSplineSet
EndChar

StartChar: uniE036
Encoding: 57398 57398 153
Width: 1400
GlyphClass: 1
Flags: W
LayerCount: 2
Fore
SplineSet
200 500 m 1,0,-1
 200 900 l 1,1,-1
 700 900 l 1,2,-1
 700 700 l 1,3,-1
 300 700 l 1,4,-1
 300 600 l 1,5,-1
 700 600 l 1,6,-1
 700 500 l 1,7,-1
 200 500 l 1,0,-1
EndSplineSet
EndChar

StartChar: uniE037
Encoding: 57399 57399 154
Width: 1400
GlyphClass: 1
Flags: W
LayerCount: 2
Fore
SplineSet
200 500 m 1,0,-1
 200 600 l 1,1,-1
 300 600 l 1,2,-1
 300 800 l 1,3,-1
 200 800 l 1,4,-1
 200 900 l 1,5,-1
 700 900 l 1,6,-1
 700 800 l 1,7,-1
 600 800 l 1,8,-1
 600 600 l 1,9,-1
 700 600 l 1,10,-1
 700 500 l 1,11,-1
 200 500 l 1,0,-1
400 600 m 1,12,-1
 500 600 l 1,13,-1
 500 800 l 1,14,-1
 400 800 l 1,15,-1
 400 600 l 1,12,-1
EndSplineSet
EndChar

StartChar: uniE038
Encoding: 57400 57400 155
Width: 1400
GlyphClass: 1
Flags: W
LayerCount: 2
Fore
SplineSet
800 700 m 1,0,-1
 700 700 l 1,1,-1
 700 600 l 1,2,-1
 600 600 l 1,3,-1
 600 700 l 1,4,-1
 300 700 l 1,5,-1
 300 600 l 1,6,-1
 200 600 l 1,7,-1
 200 700 l 1,8,-1
 100 700 l 1,9,-1
 100 800 l 1,10,-1
 400 800 l 1,11,-1
 400 900 l 1,12,-1
 500 900 l 1,13,-1
 500 800 l 1,14,-1
 800 800 l 1,15,-1
 800 700 l 1,0,-1
300 500 m 1,16,-1
 300 600 l 1,17,-1
 600 600 l 1,18,-1
 600 500 l 1,19,-1
 300 500 l 1,16,-1
EndSplineSet
EndChar

StartChar: uniE039
Encoding: 57401 57401 156
Width: 1400
GlyphClass: 1
Flags: W
LayerCount: 2
Fore
SplineSet
1200 700 m 1,0,-1
 1200 600 l 1,1,-1
 1000 600 l 1,2,-1
 1000 100 l 1,3,-1
 900 100 l 1,4,-1
 900 900 l 1,5,-1
 1000 900 l 1,6,-1
 1000 700 l 1,7,-1
 1200 700 l 1,0,-1
EndSplineSet
EndChar

StartChar: uniE03A
Encoding: 57402 57402 157
Width: 1400
GlyphClass: 1
Flags: W
LayerCount: 2
Fore
SplineSet
1200 100 m 1,0,-1
 1100 100 l 1,1,-1
 1100 600 l 1,2,-1
 1000 600 l 1,3,-1
 1000 100 l 1,4,-1
 900 100 l 1,5,-1
 900 900 l 1,6,-1
 1000 900 l 1,7,-1
 1000 700 l 1,8,-1
 1100 700 l 1,9,-1
 1100 900 l 1,10,-1
 1200 900 l 1,11,-1
 1200 100 l 1,0,-1
EndSplineSet
EndChar

StartChar: uniE03B
Encoding: 57403 57403 158
Width: 1400
GlyphClass: 1
Flags: W
LayerCount: 2
Fore
SplineSet
1200 500 m 1,0,-1
 1000 500 l 1,1,-1
 1000 100 l 1,2,-1
 900 100 l 1,3,-1
 900 900 l 1,4,-1
 1000 900 l 1,5,-1
 1000 800 l 1,6,-1
 1200 800 l 1,7,-1
 1200 700 l 1,8,-1
 1000 700 l 1,9,-1
 1000 600 l 1,10,-1
 1200 600 l 1,11,-1
 1200 500 l 1,0,-1
EndSplineSet
EndChar

StartChar: uniE03C
Encoding: 57404 57404 159
Width: 1400
GlyphClass: 1
Flags: W
LayerCount: 2
Fore
SplineSet
900 100 m 1,0,-1
 900 900 l 1,1,-1
 1000 900 l 1,2,-1
 1000 800 l 1,3,-1
 1100 800 l 1,4,-1
 1100 900 l 1,5,-1
 1200 900 l 1,6,-1
 1200 100 l 1,7,-1
 1100 100 l 1,8,-1
 1100 500 l 1,9,-1
 1000 500 l 1,10,-1
 1000 100 l 1,11,-1
 900 100 l 1,0,-1
1000 700 m 1,12,-1
 1000 600 l 1,13,-1
 1100 600 l 1,14,-1
 1100 700 l 1,15,-1
 1000 700 l 1,12,-1
EndSplineSet
EndChar

StartChar: uniE03D
Encoding: 57405 57405 160
Width: 1400
GlyphClass: 1
Flags: W
LayerCount: 2
Fore
SplineSet
900 100 m 1,0,-1
 900 600 l 1,1,-1
 700 600 l 1,2,-1
 700 700 l 1,3,-1
 900 700 l 1,4,-1
 900 900 l 1,5,-1
 1000 900 l 1,6,-1
 1000 100 l 1,7,-1
 900 100 l 1,0,-1
EndSplineSet
EndChar

StartChar: uniE03E
Encoding: 57406 57406 161
Width: 1400
GlyphClass: 1
Flags: W
LayerCount: 2
Fore
SplineSet
1200 100 m 1,0,-1
 1100 100 l 1,1,-1
 1100 900 l 1,2,-1
 1200 900 l 1,3,-1
 1200 100 l 1,0,-1
900 100 m 1,4,-1
 900 600 l 1,5,-1
 700 600 l 1,6,-1
 700 700 l 1,7,-1
 900 700 l 1,8,-1
 900 900 l 1,9,-1
 1000 900 l 1,10,-1
 1000 100 l 1,11,-1
 900 100 l 1,4,-1
EndSplineSet
EndChar

StartChar: uniE03F
Encoding: 57407 57407 162
Width: 1400
GlyphClass: 1
Flags: W
LayerCount: 2
Fore
SplineSet
900 100 m 1,0,-1
 900 500 l 1,1,-1
 700 500 l 1,2,-1
 700 600 l 1,3,-1
 900 600 l 1,4,-1
 900 700 l 1,5,-1
 700 700 l 1,6,-1
 700 800 l 1,7,-1
 900 800 l 1,8,-1
 900 900 l 1,9,-1
 1000 900 l 1,10,-1
 1000 100 l 1,11,-1
 900 100 l 1,0,-1
EndSplineSet
EndChar

StartChar: uniE040
Encoding: 57408 57408 163
Width: 1400
GlyphClass: 1
Flags: W
LayerCount: 2
Fore
SplineSet
900 100 m 1,0,-1
 900 500 l 1,1,-1
 700 500 l 1,2,-1
 700 600 l 1,3,-1
 900 600 l 1,4,-1
 900 700 l 1,5,-1
 700 700 l 1,6,-1
 700 800 l 1,7,-1
 900 800 l 1,8,-1
 900 900 l 1,9,-1
 1000 900 l 1,10,-1
 1000 100 l 1,11,-1
 900 100 l 1,0,-1
1100 100 m 1,12,-1
 1100 900 l 1,13,-1
 1200 900 l 1,14,-1
 1200 100 l 1,15,-1
 1100 100 l 1,12,-1
EndSplineSet
EndChar

StartChar: uniE041
Encoding: 57409 57409 164
Width: 1400
GlyphClass: 1
Flags: W
LayerCount: 2
Fore
SplineSet
200 300 m 1,0,-1
 200 400 l 1,1,-1
 600 400 l 1,2,-1
 600 600 l 1,3,-1
 700 600 l 1,4,-1
 700 400 l 1,5,-1
 1100 400 l 1,6,-1
 1100 300 l 1,7,-1
 200 300 l 1,0,-1
EndSplineSet
EndChar

StartChar: uniE042
Encoding: 57410 57410 165
Width: 1400
GlyphClass: 1
Flags: W
LayerCount: 2
Fore
SplineSet
900 100 m 1,0,-1
 900 300 l 1,1,-1
 100 300 l 1,2,-1
 100 400 l 1,3,-1
 400 400 l 1,4,-1
 400 600 l 1,5,-1
 500 600 l 1,6,-1
 500 400 l 1,7,-1
 900 400 l 1,8,-1
 900 900 l 1,9,-1
 1000 900 l 1,10,-1
 1000 700 l 1,11,-1
 1200 700 l 1,12,-1
 1200 600 l 1,13,-1
 1000 600 l 1,14,-1
 1000 100 l 1,15,-1
 900 100 l 1,0,-1
EndSplineSet
EndChar

StartChar: uniE043
Encoding: 57411 57411 166
Width: 1400
GlyphClass: 1
Flags: W
LayerCount: 2
Fore
SplineSet
900 100 m 1,0,-1
 900 300 l 1,1,-1
 100 300 l 1,2,-1
 100 400 l 1,3,-1
 400 400 l 1,4,-1
 400 600 l 1,5,-1
 500 600 l 1,6,-1
 500 400 l 1,7,-1
 900 400 l 1,8,-1
 900 900 l 1,9,-1
 1000 900 l 1,10,-1
 1000 700 l 1,11,-1
 1100 700 l 1,12,-1
 1100 900 l 1,13,-1
 1200 900 l 1,14,-1
 1200 100 l 1,15,-1
 1100 100 l 1,16,-1
 1100 600 l 1,17,-1
 1000 600 l 1,18,-1
 1000 100 l 1,19,-1
 900 100 l 1,0,-1
EndSplineSet
EndChar

StartChar: uniE044
Encoding: 57412 57412 167
Width: 1400
GlyphClass: 1
Flags: W
LayerCount: 2
Fore
SplineSet
400 400 m 1,0,-1
 400 600 l 1,1,-1
 500 600 l 1,2,-1
 500 400 l 1,3,-1
 900 400 l 1,4,-1
 900 900 l 1,5,-1
 1000 900 l 1,6,-1
 1000 100 l 1,7,-1
 900 100 l 1,8,-1
 900 300 l 1,9,-1
 100 300 l 1,10,-1
 100 400 l 1,11,-1
 400 400 l 1,0,-1
EndSplineSet
EndChar

StartChar: uniE045
Encoding: 57413 57413 168
Width: 1400
GlyphClass: 1
Flags: W
LayerCount: 2
Fore
SplineSet
800 400 m 1,0,-1
 1100 400 l 1,1,-1
 1100 300 l 1,2,-1
 200 300 l 1,3,-1
 200 400 l 1,4,-1
 500 400 l 1,5,-1
 500 600 l 1,6,-1
 600 600 l 1,7,-1
 600 400 l 1,8,-1
 700 400 l 1,9,-1
 700 600 l 1,10,-1
 800 600 l 1,11,-1
 800 400 l 1,0,-1
EndSplineSet
EndChar

StartChar: uniE046
Encoding: 57414 57414 169
Width: 1400
GlyphClass: 1
Flags: W
LayerCount: 2
Fore
SplineSet
600 100 m 1,0,-1
 600 300 l 1,1,-1
 200 300 l 1,2,-1
 200 400 l 1,3,-1
 1100 400 l 1,4,-1
 1100 300 l 1,5,-1
 700 300 l 1,6,-1
 700 100 l 1,7,-1
 600 100 l 1,0,-1
EndSplineSet
EndChar

StartChar: uniE047
Encoding: 57415 57415 170
Width: 1400
GlyphClass: 1
Flags: W
LayerCount: 2
Fore
SplineSet
900 100 m 1,0,-1
 900 300 l 1,1,-1
 500 300 l 1,2,-1
 500 100 l 1,3,-1
 400 100 l 1,4,-1
 400 300 l 1,5,-1
 100 300 l 1,6,-1
 100 400 l 1,7,-1
 900 400 l 1,8,-1
 900 600 l 1,9,-1
 700 600 l 1,10,-1
 700 700 l 1,11,-1
 900 700 l 1,12,-1
 900 900 l 1,13,-1
 1000 900 l 1,14,-1
 1000 100 l 1,15,-1
 900 100 l 1,0,-1
EndSplineSet
EndChar

StartChar: uniE048
Encoding: 57416 57416 171
Width: 1400
GlyphClass: 1
Flags: W
LayerCount: 2
Fore
SplineSet
900 100 m 1,0,-1
 900 300 l 1,1,-1
 500 300 l 1,2,-1
 500 100 l 1,3,-1
 400 100 l 1,4,-1
 400 300 l 1,5,-1
 100 300 l 1,6,-1
 100 400 l 1,7,-1
 900 400 l 1,8,-1
 900 600 l 1,9,-1
 700 600 l 1,10,-1
 700 700 l 1,11,-1
 900 700 l 1,12,-1
 900 900 l 1,13,-1
 1000 900 l 1,14,-1
 1000 100 l 1,15,-1
 900 100 l 1,0,-1
1100 100 m 1,16,-1
 1100 900 l 1,17,-1
 1200 900 l 1,18,-1
 1200 100 l 1,19,-1
 1100 100 l 1,16,-1
EndSplineSet
EndChar

StartChar: uniE049
Encoding: 57417 57417 172
Width: 1400
GlyphClass: 1
Flags: W
LayerCount: 2
Fore
SplineSet
400 100 m 1,0,-1
 400 300 l 1,1,-1
 100 300 l 1,2,-1
 100 400 l 1,3,-1
 900 400 l 1,4,-1
 900 900 l 1,5,-1
 1000 900 l 1,6,-1
 1000 100 l 1,7,-1
 900 100 l 1,8,-1
 900 300 l 1,9,-1
 500 300 l 1,10,-1
 500 100 l 1,11,-1
 400 100 l 1,0,-1
EndSplineSet
EndChar

StartChar: uniE04A
Encoding: 57418 57418 173
Width: 1400
GlyphClass: 1
Flags: W
LayerCount: 2
Fore
SplineSet
800 100 m 1,0,-1
 700 100 l 1,1,-1
 700 300 l 1,2,-1
 600 300 l 1,3,-1
 600 100 l 1,4,-1
 500 100 l 1,5,-1
 500 300 l 1,6,-1
 200 300 l 1,7,-1
 200 400 l 1,8,-1
 1100 400 l 1,9,-1
 1100 300 l 1,10,-1
 800 300 l 1,11,-1
 800 100 l 1,0,-1
EndSplineSet
EndChar

StartChar: uniE04B
Encoding: 57419 57419 174
Width: 1400
GlyphClass: 1
Flags: W
LayerCount: 2
Fore
SplineSet
200 300 m 1,0,-1
 200 400 l 1,1,-1
 1100 400 l 1,2,-1
 1100 300 l 1,3,-1
 200 300 l 1,0,-1
EndSplineSet
EndChar

StartChar: uniE04C
Encoding: 57420 57420 175
Width: 1400
GlyphClass: 1
Flags: W
LayerCount: 2
Fore
SplineSet
900 100 m 1,0,-1
 900 300 l 1,1,-1
 100 300 l 1,2,-1
 100 400 l 1,3,-1
 900 400 l 1,4,-1
 900 900 l 1,5,-1
 1000 900 l 1,6,-1
 1000 100 l 1,7,-1
 900 100 l 1,0,-1
EndSplineSet
EndChar

StartChar: uniE04D
Encoding: 57421 57421 176
Width: 1400
GlyphClass: 1
Flags: W
LayerCount: 2
Fore
SplineSet
900 100 m 1,0,-1
 900 900 l 1,1,-1
 1000 900 l 1,2,-1
 1000 100 l 1,3,-1
 900 100 l 1,0,-1
EndSplineSet
EndChar

StartChar: uniE04F
Encoding: 57423 57423 178
Width: 1400
GlyphClass: 1
Flags: W
LayerCount: 2
Fore
SplineSet
900 100 m 1,0,-1
 300 100 l 1,1,-1
 300 200 l 1,2,-1
 1000 200 l 1,3,-1
 1000 -200 l 1,4,-1
 900 -200 l 1,5,-1
 900 100 l 1,0,-1
EndSplineSet
EndChar

StartChar: uniE050
Encoding: 57424 57424 179
Width: 1400
GlyphClass: 1
Flags: W
LayerCount: 2
Fore
SplineSet
500 100 m 1,0,-1
 200 100 l 1,1,-1
 200 200 l 1,2,-1
 600 200 l 1,3,-1
 600 -200 l 1,4,-1
 500 -200 l 1,5,-1
 500 100 l 1,0,-1
1000 100 m 1,6,-1
 700 100 l 1,7,-1
 700 200 l 1,8,-1
 1100 200 l 1,9,-1
 1100 -200 l 1,10,-1
 1000 -200 l 1,11,-1
 1000 100 l 1,6,-1
EndSplineSet
EndChar

StartChar: uniE051
Encoding: 57425 57425 180
Width: 1400
GlyphClass: 1
Flags: W
LayerCount: 2
Fore
SplineSet
800 -100 m 1,0,-1
 800 0 l 1,1,-1
 900 0 l 1,2,-1
 900 -100 l 1,3,-1
 800 -100 l 1,0,-1
800 -200 m 1,4,-1
 700 -200 l 1,5,-1
 700 -100 l 1,6,-1
 800 -100 l 1,7,-1
 800 -200 l 1,4,-1
900 200 m 1,8,-1
 1000 200 l 1,9,-1
 1000 0 l 1,10,-1
 900 0 l 1,11,-1
 900 200 l 1,8,-1
200 100 m 1,12,-1
 200 200 l 1,13,-1
 600 200 l 1,14,-1
 600 -200 l 1,15,-1
 500 -200 l 1,16,-1
 500 100 l 1,17,-1
 200 100 l 1,12,-1
1000 0 m 1,18,-1
 1100 0 l 1,19,-1
 1100 -100 l 1,20,-1
 1000 -100 l 1,21,-1
 1000 0 l 1,18,-1
1100 -100 m 1,22,-1
 1200 -100 l 1,23,-1
 1200 -200 l 1,24,-1
 1100 -200 l 1,25,-1
 1100 -100 l 1,22,-1
EndSplineSet
EndChar

StartChar: uniE052
Encoding: 57426 57426 181
Width: 1400
GlyphClass: 1
Flags: W
LayerCount: 2
Fore
SplineSet
400 200 m 1,0,-1
 400 -100 l 1,1,-1
 1000 -100 l 1,2,-1
 1000 -200 l 1,3,-1
 300 -200 l 1,4,-1
 300 200 l 1,5,-1
 400 200 l 1,0,-1
EndSplineSet
EndChar

StartChar: uniE053
Encoding: 57427 57427 182
Width: 1400
GlyphClass: 1
Flags: W
LayerCount: 2
Fore
SplineSet
800 0 m 1,0,-1
 800 100 l 1,1,-1
 600 100 l 1,2,-1
 600 200 l 1,3,-1
 1100 200 l 1,4,-1
 1100 100 l 1,5,-1
 900 100 l 1,6,-1
 900 0 l 1,7,-1
 800 0 l 1,0,-1
800 -100 m 1,8,-1
 700 -100 l 1,9,-1
 700 0 l 1,10,-1
 800 0 l 1,11,-1
 800 -100 l 1,8,-1
900 0 m 1,12,-1
 1000 0 l 1,13,-1
 1000 -100 l 1,14,-1
 900 -100 l 1,15,-1
 900 0 l 1,12,-1
200 200 m 1,16,-1
 300 200 l 1,17,-1
 300 -100 l 1,18,-1
 700 -100 l 1,19,-1
 700 -200 l 1,20,-1
 200 -200 l 1,21,-1
 200 200 l 1,16,-1
1000 -100 m 1,22,-1
 1100 -100 l 1,23,-1
 1100 -200 l 1,24,-1
 1000 -200 l 1,25,-1
 1000 -100 l 1,22,-1
EndSplineSet
EndChar

StartChar: uniE054
Encoding: 57428 57428 183
Width: 1400
GlyphClass: 1
Flags: W
LayerCount: 2
Fore
SplineSet
800 100 m 1,0,-1
 800 200 l 1,1,-1
 900 200 l 1,2,-1
 900 100 l 1,3,-1
 1100 100 l 1,4,-1
 1100 0 l 1,5,-1
 1000 0 l 1,6,-1
 1000 -100 l 1,7,-1
 900 -100 l 1,8,-1
 900 0 l 1,9,-1
 800 0 l 1,10,-1
 800 -100 l 1,11,-1
 700 -100 l 1,12,-1
 700 0 l 1,13,-1
 600 0 l 1,14,-1
 600 100 l 1,15,-1
 800 100 l 1,0,-1
800 -100 m 1,16,-1
 900 -100 l 1,17,-1
 900 -200 l 1,18,-1
 800 -200 l 1,19,-1
 800 -100 l 1,16,-1
200 200 m 1,20,-1
 300 200 l 1,21,-1
 300 -100 l 1,22,-1
 600 -100 l 1,23,-1
 600 -200 l 1,24,-1
 200 -200 l 1,25,-1
 200 200 l 1,20,-1
EndSplineSet
EndChar

StartChar: uniE055
Encoding: 57429 57429 184
Width: 1400
GlyphClass: 1
Flags: W
LayerCount: 2
Fore
SplineSet
400 100 m 1,0,-1
 400 -100 l 1,1,-1
 1000 -100 l 1,2,-1
 1000 -200 l 1,3,-1
 300 -200 l 1,4,-1
 300 200 l 1,5,-1
 1000 200 l 1,6,-1
 1000 100 l 1,7,-1
 400 100 l 1,0,-1
EndSplineSet
EndChar

StartChar: uniE056
Encoding: 57430 57430 185
Width: 1400
GlyphClass: 1
Flags: W
LayerCount: 2
Fore
SplineSet
1000 -100 m 1,0,-1
 1000 -200 l 1,1,-1
 300 -200 l 1,2,-1
 300 0 l 1,3,-1
 700 0 l 1,4,-1
 700 -100 l 1,5,-1
 1000 -100 l 1,0,-1
1000 200 m 1,6,-1
 1000 0 l 1,7,-1
 700 0 l 1,8,-1
 700 100 l 1,9,-1
 300 100 l 1,10,-1
 300 200 l 1,11,-1
 1000 200 l 1,6,-1
EndSplineSet
EndChar

StartChar: uniE057
Encoding: 57431 57431 186
Width: 1400
GlyphClass: 1
Flags: W
LayerCount: 2
Fore
SplineSet
200 100 m 1,0,-1
 200 200 l 1,1,-1
 600 200 l 1,2,-1
 600 0 l 1,3,-1
 400 0 l 1,4,-1
 400 100 l 1,5,-1
 200 100 l 1,0,-1
200 0 m 1,6,-1
 400 0 l 1,7,-1
 400 -100 l 1,8,-1
 600 -100 l 1,9,-1
 600 -200 l 1,10,-1
 200 -200 l 1,11,-1
 200 0 l 1,6,-1
1000 100 m 1,12,-1
 700 100 l 1,13,-1
 700 200 l 1,14,-1
 1100 200 l 1,15,-1
 1100 -200 l 1,16,-1
 1000 -200 l 1,17,-1
 1000 100 l 1,12,-1
EndSplineSet
EndChar

StartChar: uniE058
Encoding: 57432 57432 187
Width: 1400
GlyphClass: 1
Flags: W
LayerCount: 2
Fore
SplineSet
800 100 m 1,0,-1
 800 -100 l 1,1,-1
 1000 -100 l 1,2,-1
 1000 100 l 1,3,-1
 800 100 l 1,0,-1
200 100 m 1,4,-1
 200 200 l 1,5,-1
 600 200 l 1,6,-1
 600 0 l 1,7,-1
 400 0 l 1,8,-1
 400 100 l 1,9,-1
 200 100 l 1,4,-1
200 0 m 1,10,-1
 400 0 l 1,11,-1
 400 -100 l 1,12,-1
 600 -100 l 1,13,-1
 600 -200 l 1,14,-1
 200 -200 l 1,15,-1
 200 0 l 1,10,-1
1100 200 m 1,16,-1
 1100 -200 l 1,17,-1
 700 -200 l 1,18,-1
 700 200 l 1,19,-1
 1100 200 l 1,16,-1
EndSplineSet
EndChar

StartChar: uniE059
Encoding: 57433 57433 188
Width: 1400
GlyphClass: 1
Flags: W
LayerCount: 2
Fore
SplineSet
800 200 m 1,0,-1
 800 100 l 1,1,-1
 1000 100 l 1,2,-1
 1000 200 l 1,3,-1
 1100 200 l 1,4,-1
 1100 -200 l 1,5,-1
 700 -200 l 1,6,-1
 700 200 l 1,7,-1
 800 200 l 1,0,-1
800 0 m 1,8,-1
 800 -100 l 1,9,-1
 1000 -100 l 1,10,-1
 1000 0 l 1,11,-1
 800 0 l 1,8,-1
200 100 m 1,12,-1
 200 200 l 1,13,-1
 600 200 l 1,14,-1
 600 0 l 1,15,-1
 400 0 l 1,16,-1
 400 100 l 1,17,-1
 200 100 l 1,12,-1
200 0 m 1,18,-1
 400 0 l 1,19,-1
 400 -100 l 1,20,-1
 600 -100 l 1,21,-1
 600 -200 l 1,22,-1
 200 -200 l 1,23,-1
 200 0 l 1,18,-1
EndSplineSet
EndChar

StartChar: uniE05A
Encoding: 57434 57434 189
Width: 1400
GlyphClass: 1
Flags: W
LayerCount: 2
Fore
SplineSet
900 200 m 1,0,-1
 1000 200 l 1,1,-1
 1000 0 l 1,2,-1
 900 0 l 1,3,-1
 900 200 l 1,0,-1
900 0 m 1,4,-1
 900 -100 l 1,5,-1
 800 -100 l 1,6,-1
 800 0 l 1,7,-1
 900 0 l 1,4,-1
200 100 m 1,8,-1
 200 200 l 1,9,-1
 600 200 l 1,10,-1
 600 0 l 1,11,-1
 400 0 l 1,12,-1
 400 100 l 1,13,-1
 200 100 l 1,8,-1
200 0 m 1,14,-1
 400 0 l 1,15,-1
 400 -100 l 1,16,-1
 600 -100 l 1,17,-1
 600 -200 l 1,18,-1
 200 -200 l 1,19,-1
 200 0 l 1,14,-1
1100 0 m 1,20,-1
 1100 -100 l 1,21,-1
 1000 -100 l 1,22,-1
 1000 0 l 1,23,-1
 1100 0 l 1,20,-1
1100 -100 m 1,24,-1
 1200 -100 l 1,25,-1
 1200 -200 l 1,26,-1
 1100 -200 l 1,27,-1
 1100 -100 l 1,24,-1
800 -100 m 1,28,-1
 800 -200 l 1,29,-1
 700 -200 l 1,30,-1
 700 -100 l 1,31,-1
 800 -100 l 1,28,-1
EndSplineSet
EndChar

StartChar: uniE05B
Encoding: 57435 57435 190
Width: 1400
GlyphClass: 1
Flags: W
LayerCount: 2
Fore
SplineSet
800 0 m 1,0,-1
 800 -100 l 1,1,-1
 1100 -100 l 1,2,-1
 1100 -200 l 1,3,-1
 700 -200 l 1,4,-1
 700 200 l 1,5,-1
 1100 200 l 1,6,-1
 1100 0 l 1,7,-1
 800 0 l 1,0,-1
200 100 m 1,8,-1
 200 200 l 1,9,-1
 600 200 l 1,10,-1
 600 0 l 1,11,-1
 400 0 l 1,12,-1
 400 100 l 1,13,-1
 200 100 l 1,8,-1
200 0 m 1,14,-1
 400 0 l 1,15,-1
 400 -100 l 1,16,-1
 600 -100 l 1,17,-1
 600 -200 l 1,18,-1
 200 -200 l 1,19,-1
 200 0 l 1,14,-1
EndSplineSet
EndChar

StartChar: uniE05C
Encoding: 57436 57436 191
Width: 1400
GlyphClass: 1
Flags: W
LayerCount: 2
Fore
SplineSet
900 -100 m 1,0,-1
 1000 -100 l 1,1,-1
 1000 100 l 1,2,-1
 900 100 l 1,3,-1
 900 -100 l 1,0,-1
200 100 m 1,4,-1
 200 200 l 1,5,-1
 600 200 l 1,6,-1
 600 0 l 1,7,-1
 400 0 l 1,8,-1
 400 100 l 1,9,-1
 200 100 l 1,4,-1
200 0 m 1,10,-1
 400 0 l 1,11,-1
 400 -100 l 1,12,-1
 600 -100 l 1,13,-1
 600 -200 l 1,14,-1
 200 -200 l 1,15,-1
 200 0 l 1,10,-1
1100 -100 m 1,16,-1
 1200 -100 l 1,17,-1
 1200 -200 l 1,18,-1
 700 -200 l 1,19,-1
 700 -100 l 1,20,-1
 800 -100 l 1,21,-1
 800 100 l 1,22,-1
 700 100 l 1,23,-1
 700 200 l 1,24,-1
 1200 200 l 1,25,-1
 1200 100 l 1,26,-1
 1100 100 l 1,27,-1
 1100 -100 l 1,16,-1
EndSplineSet
EndChar

StartChar: uniE05D
Encoding: 57437 57437 192
Width: 1400
GlyphClass: 1
Flags: W
LayerCount: 2
Fore
SplineSet
900 100 m 1,0,-1
 900 200 l 1,1,-1
 1000 200 l 1,2,-1
 1000 100 l 1,3,-1
 1200 100 l 1,4,-1
 1200 0 l 1,5,-1
 1100 0 l 1,6,-1
 1100 -100 l 1,7,-1
 1000 -100 l 1,8,-1
 1000 0 l 1,9,-1
 900 0 l 1,10,-1
 900 -100 l 1,11,-1
 800 -100 l 1,12,-1
 800 0 l 1,13,-1
 700 0 l 1,14,-1
 700 100 l 1,15,-1
 900 100 l 1,0,-1
900 -100 m 1,16,-1
 1000 -100 l 1,17,-1
 1000 -200 l 1,18,-1
 900 -200 l 1,19,-1
 900 -100 l 1,16,-1
200 100 m 1,20,-1
 200 200 l 1,21,-1
 600 200 l 1,22,-1
 600 0 l 1,23,-1
 400 0 l 1,24,-1
 400 100 l 1,25,-1
 200 100 l 1,20,-1
200 0 m 1,26,-1
 400 0 l 1,27,-1
 400 -100 l 1,28,-1
 600 -100 l 1,29,-1
 600 -200 l 1,30,-1
 200 -200 l 1,31,-1
 200 0 l 1,26,-1
EndSplineSet
EndChar

StartChar: uniE05E
Encoding: 57438 57438 193
Width: 1400
GlyphClass: 1
Flags: W
LayerCount: 2
Fore
SplineSet
400 100 m 1,0,-1
 400 -100 l 1,1,-1
 900 -100 l 1,2,-1
 900 100 l 1,3,-1
 400 100 l 1,0,-1
1000 200 m 1,4,-1
 1000 -200 l 1,5,-1
 300 -200 l 1,6,-1
 300 200 l 1,7,-1
 1000 200 l 1,4,-1
EndSplineSet
EndChar

StartChar: uniE05F
Encoding: 57439 57439 194
Width: 1400
GlyphClass: 1
Flags: W
LayerCount: 2
Fore
SplineSet
400 200 m 1,0,-1
 400 100 l 1,1,-1
 900 100 l 1,2,-1
 900 200 l 1,3,-1
 1000 200 l 1,4,-1
 1000 -200 l 1,5,-1
 300 -200 l 1,6,-1
 300 200 l 1,7,-1
 400 200 l 1,0,-1
400 0 m 1,8,-1
 400 -100 l 1,9,-1
 900 -100 l 1,10,-1
 900 0 l 1,11,-1
 400 0 l 1,8,-1
EndSplineSet
EndChar

StartChar: uniE060
Encoding: 57440 57440 195
Width: 1400
GlyphClass: 1
Flags: W
LayerCount: 2
Fore
SplineSet
900 200 m 1,0,-1
 1000 200 l 1,1,-1
 1000 0 l 1,2,-1
 900 0 l 1,3,-1
 900 200 l 1,0,-1
900 0 m 1,4,-1
 900 -100 l 1,5,-1
 800 -100 l 1,6,-1
 800 0 l 1,7,-1
 900 0 l 1,4,-1
200 200 m 1,8,-1
 300 200 l 1,9,-1
 300 100 l 1,10,-1
 500 100 l 1,11,-1
 500 200 l 1,12,-1
 600 200 l 1,13,-1
 600 -200 l 1,14,-1
 200 -200 l 1,15,-1
 200 200 l 1,8,-1
1100 0 m 1,16,-1
 1100 -100 l 1,17,-1
 1000 -100 l 1,18,-1
 1000 0 l 1,19,-1
 1100 0 l 1,16,-1
1100 -100 m 1,20,-1
 1200 -100 l 1,21,-1
 1200 -200 l 1,22,-1
 1100 -200 l 1,23,-1
 1100 -100 l 1,20,-1
800 -100 m 1,24,-1
 800 -200 l 1,25,-1
 700 -200 l 1,26,-1
 700 -100 l 1,27,-1
 800 -100 l 1,24,-1
300 0 m 1,28,-1
 300 -100 l 1,29,-1
 500 -100 l 1,30,-1
 500 0 l 1,31,-1
 300 0 l 1,28,-1
EndSplineSet
EndChar

StartChar: uniE061
Encoding: 57441 57441 196
Width: 1400
GlyphClass: 1
Flags: W
LayerCount: 2
Fore
SplineSet
800 100 m 1,0,-1
 800 0 l 1,1,-1
 700 0 l 1,2,-1
 700 100 l 1,3,-1
 800 100 l 1,0,-1
800 0 m 1,4,-1
 900 0 l 1,5,-1
 900 -100 l 1,6,-1
 800 -100 l 1,7,-1
 800 0 l 1,4,-1
900 -100 m 1,8,-1
 1000 -100 l 1,9,-1
 1000 -200 l 1,10,-1
 900 -200 l 1,11,-1
 900 -100 l 1,8,-1
300 -200 m 1,12,-1
 300 -100 l 1,13,-1
 400 -100 l 1,14,-1
 400 -200 l 1,15,-1
 300 -200 l 1,12,-1
400 -100 m 1,16,-1
 400 0 l 1,17,-1
 500 0 l 1,18,-1
 500 -100 l 1,19,-1
 400 -100 l 1,16,-1
500 0 m 1,20,-1
 500 100 l 1,21,-1
 600 100 l 1,22,-1
 600 0 l 1,23,-1
 500 0 l 1,20,-1
600 100 m 1,24,-1
 600 200 l 1,25,-1
 700 200 l 1,26,-1
 700 100 l 1,27,-1
 600 100 l 1,24,-1
EndSplineSet
EndChar

StartChar: uniE062
Encoding: 57442 57442 197
Width: 1400
GlyphClass: 1
Flags: W
LayerCount: 2
Fore
SplineSet
900 0 m 1,0,-1
 800 0 l 1,1,-1
 800 200 l 1,2,-1
 900 200 l 1,3,-1
 900 0 l 1,0,-1
900 -100 m 1,4,-1
 900 0 l 1,5,-1
 1000 0 l 1,6,-1
 1000 -100 l 1,7,-1
 900 -100 l 1,4,-1
200 -200 m 1,8,-1
 200 -100 l 1,9,-1
 300 -100 l 1,10,-1
 300 -200 l 1,11,-1
 200 -200 l 1,8,-1
1100 -100 m 1,12,-1
 1100 -200 l 1,13,-1
 1000 -200 l 1,14,-1
 1000 -100 l 1,15,-1
 1100 -100 l 1,12,-1
400 200 m 1,16,-1
 500 200 l 1,17,-1
 500 0 l 1,18,-1
 400 0 l 1,19,-1
 400 200 l 1,16,-1
400 0 m 1,20,-1
 400 -100 l 1,21,-1
 300 -100 l 1,22,-1
 300 0 l 1,23,-1
 400 0 l 1,20,-1
600 0 m 1,24,-1
 600 -100 l 1,25,-1
 500 -100 l 1,26,-1
 500 0 l 1,27,-1
 600 0 l 1,24,-1
600 -100 m 1,28,-1
 700 -100 l 1,29,-1
 700 -200 l 1,30,-1
 600 -200 l 1,31,-1
 600 -100 l 1,28,-1
800 0 m 1,32,-1
 800 -100 l 1,33,-1
 700 -100 l 1,34,-1
 700 0 l 1,35,-1
 800 0 l 1,32,-1
EndSplineSet
EndChar

StartChar: uniE063
Encoding: 57443 57443 198
Width: 1400
GlyphClass: 1
Flags: W
LayerCount: 2
Fore
SplineSet
400 100 m 1,0,-1
 400 200 l 1,1,-1
 900 200 l 1,2,-1
 900 100 l 1,3,-1
 400 100 l 1,0,-1
400 -100 m 1,4,-1
 900 -100 l 1,5,-1
 900 -200 l 1,6,-1
 400 -200 l 1,7,-1
 400 -100 l 1,4,-1
900 100 m 1,8,-1
 1000 100 l 1,9,-1
 1000 -100 l 1,10,-1
 900 -100 l 1,11,-1
 900 100 l 1,8,-1
300 100 m 1,12,-1
 400 100 l 1,13,-1
 400 -100 l 1,14,-1
 300 -100 l 1,15,-1
 300 100 l 1,12,-1
EndSplineSet
EndChar

StartChar: uniE064
Encoding: 57444 57444 199
Width: 1400
GlyphClass: 1
Flags: W
LayerCount: 2
Fore
SplineSet
800 100 m 1,0,-1
 800 0 l 1,1,-1
 700 0 l 1,2,-1
 700 100 l 1,3,-1
 600 100 l 1,4,-1
 600 0 l 1,5,-1
 500 0 l 1,6,-1
 500 100 l 1,7,-1
 300 100 l 1,8,-1
 300 200 l 1,9,-1
 1000 200 l 1,10,-1
 1000 100 l 1,11,-1
 800 100 l 1,0,-1
800 0 m 1,12,-1
 900 0 l 1,13,-1
 900 -100 l 1,14,-1
 800 -100 l 1,15,-1
 800 0 l 1,12,-1
900 -100 m 1,16,-1
 1000 -100 l 1,17,-1
 1000 -200 l 1,18,-1
 900 -200 l 1,19,-1
 900 -100 l 1,16,-1
300 -200 m 1,20,-1
 300 -100 l 1,21,-1
 400 -100 l 1,22,-1
 400 -200 l 1,23,-1
 300 -200 l 1,20,-1
400 -100 m 1,24,-1
 400 0 l 1,25,-1
 500 0 l 1,26,-1
 500 -100 l 1,27,-1
 400 -100 l 1,24,-1
EndSplineSet
EndChar

StartChar: uniE065
Encoding: 57445 57445 200
Width: 1400
GlyphClass: 1
Flags: W
LayerCount: 2
Fore
SplineSet
800 -100 m 1,0,-1
 800 0 l 1,1,-1
 500 0 l 1,2,-1
 500 -100 l 1,3,-1
 400 -100 l 1,4,-1
 400 0 l 1,5,-1
 300 0 l 1,6,-1
 300 100 l 1,7,-1
 600 100 l 1,8,-1
 600 200 l 1,9,-1
 700 200 l 1,10,-1
 700 100 l 1,11,-1
 1000 100 l 1,12,-1
 1000 0 l 1,13,-1
 900 0 l 1,14,-1
 900 -100 l 1,15,-1
 800 -100 l 1,0,-1
900 -100 m 1,16,-1
 1000 -100 l 1,17,-1
 1000 -200 l 1,18,-1
 900 -200 l 1,19,-1
 900 -100 l 1,16,-1
300 -200 m 1,20,-1
 300 -100 l 1,21,-1
 400 -100 l 1,22,-1
 400 -200 l 1,23,-1
 300 -200 l 1,20,-1
EndSplineSet
EndChar

StartChar: uniE066
Encoding: 57446 57446 201
Width: 1400
GlyphClass: 1
Flags: W
LayerCount: 2
Fore
SplineSet
900 0 m 1,0,-1
 900 100 l 1,1,-1
 300 100 l 1,2,-1
 300 200 l 1,3,-1
 1000 200 l 1,4,-1
 1000 -200 l 1,5,-1
 900 -200 l 1,6,-1
 900 -100 l 1,7,-1
 300 -100 l 1,8,-1
 300 0 l 1,9,-1
 900 0 l 1,0,-1
EndSplineSet
EndChar

StartChar: uniE067
Encoding: 57447 57447 202
Width: 1400
GlyphClass: 1
Flags: W
LayerCount: 2
Fore
SplineSet
400 0 m 1,0,-1
 400 -100 l 1,1,-1
 1000 -100 l 1,2,-1
 1000 -200 l 1,3,-1
 300 -200 l 1,4,-1
 300 200 l 1,5,-1
 1000 200 l 1,6,-1
 1000 0 l 1,7,-1
 400 0 l 1,0,-1
EndSplineSet
EndChar

StartChar: uniE068
Encoding: 57448 57448 203
Width: 1400
GlyphClass: 1
Flags: W
LayerCount: 2
Fore
SplineSet
800 100 m 1,0,-1
 800 -100 l 1,1,-1
 1000 -100 l 1,2,-1
 1000 -200 l 1,3,-1
 300 -200 l 1,4,-1
 300 -100 l 1,5,-1
 500 -100 l 1,6,-1
 500 100 l 1,7,-1
 300 100 l 1,8,-1
 300 200 l 1,9,-1
 1000 200 l 1,10,-1
 1000 100 l 1,11,-1
 800 100 l 1,0,-1
600 -100 m 1,12,-1
 700 -100 l 1,13,-1
 700 100 l 1,14,-1
 600 100 l 1,15,-1
 600 -100 l 1,12,-1
EndSplineSet
EndChar

StartChar: uniE069
Encoding: 57449 57449 204
Width: 1400
GlyphClass: 1
Flags: W
LayerCount: 2
Fore
SplineSet
800 -100 m 1,0,-1
 800 0 l 1,1,-1
 500 0 l 1,2,-1
 500 -100 l 1,3,-1
 400 -100 l 1,4,-1
 400 0 l 1,5,-1
 300 0 l 1,6,-1
 300 100 l 1,7,-1
 600 100 l 1,8,-1
 600 200 l 1,9,-1
 700 200 l 1,10,-1
 700 100 l 1,11,-1
 1000 100 l 1,12,-1
 1000 0 l 1,13,-1
 900 0 l 1,14,-1
 900 -100 l 1,15,-1
 800 -100 l 1,0,-1
800 -200 m 1,16,-1
 500 -200 l 1,17,-1
 500 -100 l 1,18,-1
 800 -100 l 1,19,-1
 800 -200 l 1,16,-1
EndSplineSet
EndChar
